<svg width="272" height="405" viewBox="0 0 272 405" fill="none" xmlns="http://www.w3.org/2000/svg">
<g id="bairros">
<path id="mangueirao" d="M146.345 212.145L145.989 212.549L144.824 214.668L144.117 215.798L146.304 219.163L147.072 219.893L147.727 220.212L149.473 220.803L150.356 221.414L150.386 221.434L151.514 222.453L151.796 222.599L154.007 223.342L153.945 224.025L154.119 224.205L154.917 224.361L155.345 224.452L155.27 225.644L154.339 228.659L152.855 234.719L154.421 235.184L155.08 235.442L154.061 238.491L154.03 238.549L153.996 238.603L152.753 238.271L151.898 238.043L151.521 239.33L151.049 239.601H150.471L149.585 239.568L148.719 239.554L147.887 239.544L147.004 239.513L145.965 239.489L145.303 239.496L145.082 237.704L145.072 237.554L142.144 237.527L139.815 237.486L137.305 237.418L137.315 237.503L134.785 237.272L133.607 237.116L132.462 237.045L130.961 237.031L129.311 236.97L128.425 236.94L127.104 236.902L126.818 236.882L123.361 236.828L121.249 236.705L119.496 236.641L118.491 236.61L118.05 236.617L112.402 236.43H112.375L110.962 236.352L109.876 236.267L109.835 236.264L107.526 236.23L104.018 236.475L102.764 236.583L100.88 236.75L99.6911 236.817H99.4194L98.73 236.743L97.7486 236.746L96.6313 236.716L95.5548 236.743L94.5394 236.811L94.3865 236.8L91.1875 236.556L92.1384 235.575L93.816 233.721L96.5328 231.362L97.2392 230.458L99.9628 228.72L100.608 228.235L101.511 227.671L101.943 227.362L102.34 227.077L102.649 226.826L103.084 226.652L103.444 226.5L104.35 225.902L105.193 225.23L105.464 225.057L105.75 224.863L104.452 223.02L103.79 222.677L98.4651 222.904L96.7467 222.908L96.7433 222.612L92.821 222.826L92.3014 222.171L92.5357 222.028L92.9093 221.702L92.9161 221.692L93.4051 220.932L93.5206 220.684L94.0673 219.502L94.6344 218.137L95.7212 215.275L94.0571 212.542L93.4289 209.446L93.0825 206.974L93.1572 204.934L93.2319 204.781L94.536 204.737L96.1389 204.733L98.2172 204.723L99.3175 204.683L101.043 204.618L102.299 204.57L102.537 204.604L104.113 204.54L104.316 204.537L104.754 204.526L105.93 204.499L109.044 204.632L110.46 204.56L112.256 204.53L113.353 204.306L113.55 204.085L114.134 204.272L115.893 204.187L116.916 204.183L117.055 204.187L117.072 204.9L117.174 206.692L118.597 204.988L119.693 204.129L122.023 202.581L123.517 201.023L123.589 200.948L123.619 200.9L124.675 199.311L124.76 199.186L124.838 199.07L129.077 192.813L129.328 192.487L129.586 192.867L130.014 193.574L130.061 193.655L130.075 193.679L130.455 194.31L130.696 194.813L130.778 194.983L131.335 196.137L131.501 196.453L133.607 194.83L135.223 193.591L137.903 191.53L139.234 190.508L140.253 191.896L139.801 192.216L140.073 192.582L141.859 194.935L144.27 198.177L145.5 199.963L146.576 201.498L147.642 203.066L148.855 204.818L150.213 206.397L148.828 207.938L148.753 208.02L148.349 208.516L148.176 208.845L147.748 209.656L146.926 211.334L146.345 212.145Z" fill="white" stroke="black"/>
<path id="castanheira" d="M145.305 239.495L145.967 239.488L147.006 239.512L147.889 239.543L148.721 239.553L149.587 239.566L150.473 239.6H151.051L151.523 239.329L151.9 238.042L152.756 238.269L153.998 238.602L154.032 238.548L154.063 238.49L154.858 238.758L154.81 245.715L154.756 250.417V251.785L154.759 253.843L154.763 254.505L154.78 254.627L154.81 254.831L155.01 255.024L155.52 254.665L156.783 253.731L157.649 252.807L159.829 250.22L160.668 249.212L163.45 245.871L165.015 243.99L166.244 259.652L168.761 258.077L168.883 259.36L168.931 259.842L168.846 260.351L168.873 261.652L168.707 262.358L168.411 263.091L166.102 266.653L164.56 269.298L163.623 270.686L162.944 271.199L162.176 271.464L160.009 271.895L159.385 272.007L158.417 272.058L158.111 272.051L157.007 271.861L154.99 271.403L152.467 270.9L152.046 271.226L148.456 270.503L145.604 269.926L143.546 269.528L142.17 269.902L142.099 270.055L139.909 274.659L138.537 273.565L132.254 268.415L132.026 268.371L130.98 269.773L130.254 270.73L130.026 270.612L129.758 270.35L129.218 269.366L128.423 268.408L127.048 266.707L126.267 265.801L125.129 264.487L123.961 263.061L126.314 262.531L127.676 262.188L131.327 261.333L131.446 261.288L132.186 261.105L132.509 260.993L132.957 260.891L133.792 260.677L134.522 260.504L135.358 260.27L135.935 260.127L136.706 259.951L137.657 259.75L138.829 259.482L139.715 259.224L140.014 259.105L140.815 258.912L141.749 258.64L142.316 258.457L142.741 258.111L143.067 257.72L143.383 257.411L143.468 257.313L143.739 256.899L143.929 256.613L143.987 256.294L144.35 254.974L144.714 253.31L144.901 252.661L145.179 251.531L145.362 250.811L145.413 250.489L145.427 250.424L145.753 248.859L145.947 247.467L145.95 247.443L145.957 247.284L145.739 244.887L145.542 242.473L145.468 241.498L145.305 239.495Z" fill="white" stroke="black"/>
<path id="una" d="M168.105 194.452L167.382 194.632L167.311 194.649L167.233 194.666L166.866 194.747L166.611 194.903L166.275 195.226L165.979 195.599L165.772 195.857L165.49 196.217L164.59 197.518L162.492 200.543L161.171 202.24L159.938 203.826L159.901 203.873L158.478 205.455L154.949 201.015L155.662 199.833L155.887 199.219L156.236 198.397L156.155 197.888L156.807 196.01L157.917 192.377L157.911 192.082V191.99L157.904 191.746L157.666 190.989L157.455 190.293L157.33 189.957L157.242 189.566L157.028 188.242L157.578 186.198L157.299 184.796L156.858 184.073L159.089 181.323L159.398 180.943L159.894 180.284L160.4 179.683L162.515 177.147L164.295 175.015L165.022 176.176L168.53 181.788L168.863 182.474L169.202 183.041L169.27 183.149L169.335 183.261L169.769 183.859L169.827 183.94L171.24 185.044L171.912 185.57L171.209 189.756L170.734 191.902L170.408 193.511L170.398 193.817L170.085 194.112L169.549 194.19L168.774 194.302L168.105 194.452Z" fill="white" stroke="black"/>
<path id="curioutinga" d="M199.632 255.56L205.212 252.342L210.737 251.072L210.815 251.024L210.904 250.973L218.419 247.215L218.517 247.164L218.531 248.186L218.579 249.12L218.582 249.194L218.667 251.853L218.718 253.139L218.816 254.535L219.027 259.2L219.078 259.699L219.186 261.77L219.417 264.927L219.462 266.384L219.326 267.837L218.877 269.348L218.439 270.641L217.974 272.016L217.526 273.507L217.095 275.51L216.67 278.328L216.127 281.007L215.97 281.665L215.566 284.212L215.536 284.422L215.515 284.592L214.762 290.092L215.488 293.06L215.814 294.194L215.804 294.706L215.92 295.521L216.134 296.227L216.235 296.224L218.079 296.641L220.154 299.656L220.209 299.734L218.025 299.653L217.363 299.877L213.152 302.135L213.057 302.186L211.366 303.011L217.23 308.609L228.495 302.905L228.247 324.729L230.05 324.746L232.472 326.325L235.26 327.31L237.066 327.979L238.381 328.973L239.308 330.593L240.079 334.168L239.668 336.456L236.788 340.184L233.195 344.173L229.269 345.667L227.035 345.565L222.892 344.289L219.808 344.119L216.055 345.969L213.743 348.312L213.407 349.884L213.519 351.524L215.855 354.41L216.052 354.654L182.17 362.317L167.36 366.096L158.748 370.224L158.313 369.145L158.337 368.14L158.191 367.691L158.065 366.945L157.998 366.215L157.699 365.505L157.407 365.162L156.622 364.235L156.391 363.631L155.936 362.864L155.736 362.395L155.349 361.76L155.046 361.03L154.639 360.487L153.946 359.204L153.722 358.609L153.376 357.649L153.022 356.919L152.815 356.321L152.659 355.656L152.649 354.725L152.523 353.5L152.469 353.069L152.588 352.542L153.464 351.582L154.062 350.906L154.133 350.845L154.204 350.787L153.902 350.441L153.365 349.779L153.196 349.48L153.016 348.96L152.836 348.607L152.608 348.438L151.922 348.434L151.545 348.506L151.175 348.227L150.958 347.789L150.917 347.405L150.75 347.246H150.499L150.19 347.215L149.905 346.788L149.606 346.397L149.555 345.786L149.613 345.236L149.786 344.703L149.993 344.214L149.942 343.895L149.694 343.623L146.92 344.924L143.021 346.968L142.186 347.147L141.731 347.589L141.469 348.991L140.315 351.262L138.793 354.006L130.171 348.264L122.003 342.751L121.477 340.703L121.233 340.449L121.093 338.3L120.873 334.867L120.869 334.171L120.791 333.078L120.784 332.976L120.679 331.666L120.373 329.547L119.358 326.729L119.192 326.369L118 323.738L117.14 321.701L116.991 321.344L115.707 318.296L115.537 317.474L115.29 316.377L114.794 315.23L114.227 313.671L114.148 313.458L113.873 312.894L113.748 312.585L113.721 312.524L113.697 312.47L113.279 311.58L112.671 310.409L112.372 309.136L112.08 308.667L111.931 308.361L111.625 307.856L110.953 306.335L110.793 305.975L109.999 304.291L109.262 302.291L109.248 301.717L110.457 299.935L111.031 299.089L111.764 297.996L112.216 297.382L112.349 297.558L112.79 297.483L113.68 297.236L113.761 297.212L114.515 297.015L116.071 296.604L116.149 296.584L118.95 295.891L119.915 295.66L120.214 295.602L122.54 295.029L122.357 294.353L122.455 293.976L122.611 293.355L125.284 289.817L126.741 287.882L128.469 285.594L129.957 283.75L130.429 283.19L131.437 282.056L132.388 281.115L132.806 280.647L133.577 280.148L134.837 278.797L136.671 276.522L137.873 274.848L138.117 274.963L138.613 275.089L139.112 275.164L139.574 275.116L139.91 274.658L142.101 270.054L142.172 269.901L143.548 269.528L145.606 269.925L148.458 270.502L152.048 271.225L152.469 270.899L154.992 271.402L157.009 271.86L158.113 272.05L158.419 272.057L159.386 272.006L160.011 271.894L162.178 271.463L162.945 271.198L163.625 270.686L164.562 269.297L166.104 266.652L168.413 263.091L168.708 262.357L168.875 261.651L168.848 260.351L168.933 259.842L168.885 259.359L168.763 258.076L168.804 258.056L170.369 257.278L171.137 256.793L174.421 254.854L176.2 253.856L177.884 252.966L178.139 253.951L178.244 254.087L178.458 254.148L179.402 253.92L179.919 253.744L180 253.686L180.021 253.673L184.558 250.576L187.954 247.948L188.201 254.637L188.239 255.706L188.263 256.389L188.276 258.816L188.463 265.81L194.141 264.286L193.971 260.884L194.053 260.84L194.161 260.775L199.449 257.679L199.551 257.618L199.639 257.567L199.632 255.56Z" fill="white" stroke="black"/>
<path id="aguaslindas" d="M218.582 249.195L218.578 249.12L218.531 248.186L218.517 247.164L218.452 243.603L218.368 241.009L218.334 239.984L218.113 233.872V232.056L222.534 230.134L225.564 228.82L225.774 233.794L225.825 236.755L225.968 240.425L226.056 242.421L225.934 244.238L225.995 244.367L226.236 244.89L226.637 245.755L226.657 245.81L227.231 247.096L227.289 247.229L227.367 247.453L227.387 247.511L227.679 248.319L227.805 248.672L228.79 251.473L228.81 251.527L229.238 252.739L229.262 252.814L229.71 254.08L230.213 255.554L230.525 256.474L230.58 256.637L230.943 257.706L231.001 257.876L231.378 258.983L231.697 259.855L231.938 260.558L231.982 260.694L232.498 262.198L232.522 262.269L232.546 262.337L232.593 262.476L233.004 263.675L245.624 260.14L247.016 264.476L247.206 266.343L246.782 267.392V269.416L246.66 270.363L245.097 272.234L245.142 283L245.152 285.699L245.125 287.78L245.495 289.216L245.614 290.065L245.271 290.799L244.819 291.355L244.096 291.922L242.822 292.561L240.683 291.844L239.854 291.661L239.117 292.058L238.645 292.629L235.796 292.045L235.409 292.224L235.449 293.09L234.566 292.917L234.027 293.141L233.232 293.321L232.79 293.243L232.264 292.839L232.04 292.544L232.036 291.087V291.046V290.995L231.907 290.103L231.911 290.018L231.935 289.682L230.848 289.491L225.995 288.639L222.307 287.991L220.629 287.695L218.877 282.433L219.251 280.138L219.186 279.795L219.315 279.764L219.454 279.761L219.512 279.666L219.587 279.123L219.6 278.668L219.611 278.25L219.339 278.209L219.315 278.108L219.009 278.036L218.812 277.999L218.089 277.904L218.48 275.768L218.677 273.592L218.259 273.561L217.525 273.507L217.974 272.017L218.439 270.642L218.877 269.348L219.325 267.837L219.461 266.384L219.417 264.928L219.186 261.77L219.077 259.699L219.026 259.2L218.816 254.535L218.717 253.14L218.666 251.853L218.582 249.195Z" fill="white" stroke="black"/>
<path id="guanabara" d="M184.554 250.576L180.017 253.673L179.996 253.686L179.915 253.744L179.399 253.92L178.455 254.148L178.241 254.087L178.135 253.951L177.881 252.966L177.775 246.774H179.579L179.443 242.503L182.971 242.499L184.432 242.374L184.975 242.384L185.593 242.095L186.279 241.827L186.894 241.633L188.391 240.336L189.57 239.294L189.906 239.152L190.218 239.124L190.497 238.836L190.69 238.666L191.088 238.507L191.173 238.242L191.22 237.658L191.23 237.498L191.24 237.369L191.244 237.342L191.366 237.05L191.702 236.941L192.089 236.456L192.327 236.116L192.582 235.848L192.898 235.678L193.278 234.982L193.363 234.826L193.39 235.804L193.428 237.24L193.458 238.344L193.631 244.821L193.794 251.832L193.862 254.64L193.967 260.884L194.137 264.286L188.459 265.81L188.272 258.816L188.259 256.389L188.235 255.706L188.198 254.637L187.95 247.948L184.554 250.576Z" fill="white" stroke="black"/>
<path id="coqueiro" d="M151.691 151.453L153.138 154.288L155.756 159.248L156.445 160.511L158.677 164.467L159.013 165.088L160.232 167.312L160.385 167.59L162.049 170.452L162.086 170.53L162.222 170.809L162.232 170.826L162.236 170.833L162.565 171.501L162.911 172.204L163.027 172.439L163.251 172.897L163.533 173.474L163.635 173.685L163.804 174.038L163.906 174.252L163.971 174.387L163.974 174.394L164.09 174.632L164.103 174.662L164.297 175.015L162.517 177.148L160.402 179.684L159.896 180.285L159.4 180.943L159.091 181.324L156.86 184.074L156.656 183.829L156.384 183.48L155.899 182.329L155.573 181.595L155.454 181.334L155.226 180.828L154.061 179.191L153.617 178.689L153.511 178.526L153.491 178.468L153.389 178.2L153.083 177.277L152.903 177.029L151.283 174.873L151.233 174.808L150.913 174.411L150.166 173.403L149.212 171.984L149.161 171.719L149.029 171.535L148.974 171.464L147.769 170.109L147.402 169.665L147.096 169.274L146.617 168.588L146.39 168.293L145.979 167.614L145.459 166.864L145.225 166.612L144.936 166.46L144.39 166.3L143.731 166.178L137.333 165.39L135.631 165.197L134.453 165.02L134.422 165.01L134.032 164.952L133.601 164.878L133.278 164.823L131.38 164.555L131.169 164.586L130.385 164.467L130.361 164.277L130.66 160.78L129.495 160.681L129.946 159.211L130.391 158.152L129.366 157.602L128.727 157.188L128.405 156.977L126.357 155.952L125.325 155.935L124.56 155.925L122.631 155.561L121.81 155.466L121.732 154.96L120.607 153.175L119.494 151.565L118.974 151.898L112.46 141.994L111.421 143.054L110.43 144.368L110.484 143.468L110.881 140.935L111.038 139.655L111.173 138.81L111.401 137.411L111.465 136.993L111.635 135.965L111.744 135.282L111.764 135.157L111.91 134.253L112.005 133.646L112.073 133.276L112.162 132.78L112.294 131.907L112.474 130.648L112.651 129.395L112.888 127.738L113.055 126.563L113.625 122.588L114.233 118.364L114.291 117.967L114.434 116.969L114.62 115.665L115.133 112.053L115.252 111.234L115.279 111.031L115.48 109.673L115.918 106.695L115.921 106.675L115.986 106.237L116.013 106.05L116.036 105.884L116.152 105.887L117.684 105.904L119.056 105.795L119.388 105.775L119.874 105.751L120.781 105.7L121.358 105.67L121.935 105.639L124.204 105.49L125.301 105.419L125.392 105.408L126.527 105.266H126.578L126.785 105.276L127.039 105.29L127.352 105.273L127.685 105.405L127.766 105.69L128.836 105.612L129.906 105.626L130.969 105.609L132.038 105.473L132.772 105.378L133.152 105.327L134.049 105.025L139.768 104.692L141.099 104.587L143.106 104.434L144.947 104.295L145.144 104.281L145.67 104.237L150.764 103.823L150.968 103.809L161.274 102.964L161.125 103.12L159.526 103.534L159.332 103.585L158.198 104.644L157.457 105.772L157.209 106.047L156.428 106.923L155.539 107.228L154.968 107.632L154.724 107.992L154.482 108.352L154.235 109.099L154.554 110.016L154.639 110.603L154.938 111.414L154.472 112.952L154.35 113.543L153.796 114.348L153.246 115.264L152.669 115.519L152.35 115.295L152.132 114.718L151.579 114.619L151.25 115.139L151.195 115.689L150.937 116.151L150.56 116.29L150.326 116.443L149.67 116.833L149.1 117.315L148.533 117.882L148.475 118.076L148.244 118.588L147.962 119.087L147.874 119.359L147.789 119.631L147.538 120.133L147.415 120.564L147.735 120.697L148.193 120.693L148.614 120.49L148.995 120.442L149.31 120.557L149.555 120.642L149.983 121.121L150.271 121.725L150.482 122.262L150.584 122.829L150.163 123.128L149.596 123.715L149.317 124.258L149.429 124.75L149.266 125.059L149.066 125.236L148.896 125.677L148.859 126.248L148.607 126.703L148.054 127.399L147.629 127.765L147.32 127.938L147.205 128.21L147.269 128.451L147.443 128.808L147.514 129.154L147.331 129.497L146.964 129.711L146.614 130.04L146.264 130.302L146.189 130.784L145.014 131.361L143.721 132.002L141.775 131.286L137.655 131.938L136.399 132.586L135.974 133.411L134.996 135.296L134.949 135.391L134.932 135.421L134.891 135.506L138.953 135.245H139.445H139.937L140.359 135.401L140.668 135.625L141.112 135.995L141.34 136.182L141.748 136.562L141.9 136.701L142.152 136.939L143.038 137.941L143.371 138.314L144.159 139.251L145.004 140.416L145.045 140.47L145.296 140.83L145.925 141.733L146.42 142.453L146.899 143.145L147.208 143.597L147.276 143.702L147.521 144.093L147.921 144.734L149.667 147.539L149.871 147.861L150.098 148.326L150.373 148.883L150.417 148.965L151.008 150.119L151.691 151.453Z" fill="white" stroke="black"/>
<path id="valdecaes" d="M27.129 249.1L25.0234 241.861L29.4552 229.465L29.4416 214.323L32.172 211.566L33.0923 209.522L34.6069 206.168L44.5096 206.049L48.3505 205.862L53.0777 205.761L53.0811 205.75L53.509 204.43L53.7128 203.914L53.9267 203.381L54.2527 202.199L54.8301 200.627L55.4787 198.716L55.5806 198.414L55.6451 198.213L56.7861 194.733L58.1072 190.153L58.5656 188.87L61.33 188.782L71.2904 188.602L73.9325 188.513L74.7883 187.722L75.2536 187.291L76.2588 186.327L77.7462 184.901L78.0383 184.619L80.0045 182.677L80.12 182.613L80.1268 182.609L80.4189 182.582L80.7856 182.728L81.1558 182.871L81.6142 182.905L82.0727 182.939L82.47 183.261L83.0338 183.217L83.5975 183.176L83.876 183.22L84.1578 183.268L84.5891 183.305L85.1155 183.261L85.6351 183.217L85.9238 183.288L86.209 183.366L87.1225 183.957L87.5776 187.03L87.7542 188.296L85.0951 188.289L85.3295 192.041L79.5699 192.075L79.8314 198.023L79.777 204.695L80.4766 204.525L80.8501 204.555L81.4784 204.508L83.4311 204.749L85.6487 204.79L90.1925 204.874L93.2353 204.779L93.1606 204.932L93.0859 206.973L93.4323 209.444L94.0606 212.541L95.7246 215.274L94.6379 218.136L94.0707 219.501L93.524 220.682L93.4085 220.93L92.9195 221.691L92.9127 221.701L92.5391 222.027L92.3048 222.169L92.8244 222.825L96.7468 222.611L96.7502 222.906L98.4686 222.903L103.793 222.675L104.456 223.018L105.753 224.862L105.468 225.055L105.196 225.228L104.354 225.901L103.447 226.498L103.087 226.651L102.652 226.824L102.343 227.075L101.946 227.36L101.515 227.669L100.611 228.233L99.9662 228.719L97.2426 230.457L96.5362 231.36L93.8194 233.72L92.1418 235.573L91.1909 236.555L86.4162 241.379L79.1318 248.692L79.1182 248.706L78.276 249.514L77.4032 250.363L75.3554 252.709L71.9696 249.004L71.3549 248.39L70.1799 247.076L63.6359 240.425L62.3895 239.25L62.3658 239.23L61.8869 238.775L60.2976 237.227L58.4638 235.441L56.2122 237.356L54.7723 238.49L53.2951 239.07L49.4134 239.919L46.8427 240.394L44.9885 241.491L42.6622 242.462L38.2746 244.374L33.6289 246.377L28.6436 248.38L27.129 249.1Z" fill="white" stroke="black"/>
<path id="batistacampos" d="M38.9955 377.447L37.4843 376.272L36.8017 375.763L36.1768 375.155L35.9629 374.995L35.7795 374.822L35.5248 374.612L34.6554 373.98L32.4854 372.222L30.2984 370.5L28.271 368.772L27.062 367.801L26.6205 368.3L25.6493 369.22L24.532 370.466L23.5505 371.278L22.5555 370.011L21.9442 369.275L20.8847 367.825L20.5383 367.4L18.4565 364.698L17.4004 363.421L19.8251 361.846L22.1853 360.488L24.4199 359.191L25.8496 358.285L27.0688 357.507L27.7344 356.872L29.0351 355.27L29.1675 355.08L29.3475 354.825L30.2304 353.908L32.0813 356.543L33.314 358.301L34.4075 359.853L37.053 358.111L38.0854 357.887L39.6407 357.616L41.9161 357.344L44.5785 357.049L45.0607 359.541L45.4139 361.303L45.5633 361.843L45.7467 362.44L46.3546 365.041L46.572 366.263L46.7486 367.136L47.3327 369.353L47.9507 372.093L47.0983 372.164L48.6028 374.289L48.6571 374.364L48.7148 374.442L48.8303 374.598L49.0918 374.958L49.9883 376.564L50.1276 376.503L49.5978 377.959L49.5061 378.2L48.579 381.022L47.567 384.573L46.1203 383.235L45.4513 382.621L44.6566 382.01L43.3831 380.947L42.4017 380.136L41.1384 379.087L38.9955 377.447Z" fill="white" stroke="black"/>
<path id="jurunas" d="M23.5523 371.275L24.5338 370.464L25.651 369.218L26.6223 368.298L27.0638 367.799L28.2727 368.77L30.3002 370.498L32.4872 372.219L34.6572 373.978L35.5266 374.609L35.7813 374.82L35.9647 374.993L36.1786 375.153L36.8035 375.76L37.4861 376.27L38.9973 377.444L41.1402 379.084L42.4035 380.133L43.3849 380.945L44.6584 382.008L45.4531 382.619L46.1221 383.233L47.5688 384.571L47.1103 385.79L46.679 386.947L46.5126 387.531L46.3768 388.024L45.5482 390.682L44.7705 393.042L44.5667 393.548L43.9724 394.553L42.5767 398.813L42.3254 399.56L42.2439 399.727L42.0401 401.353L41.7141 402.219L34.6232 401.754L33.6961 401.577L33.2784 401.496L32.2189 401.295L29.6719 400.81L27.3354 400.087L25.3828 398.695L22.0988 396.695L20.231 395.812L18.0338 394.96L15.5106 394.084L14.485 393.727L12.2165 392.383L10.8751 391.314L8.42657 389.456L6.7965 387.565L5.45508 386.092L5.61129 386.017L6.07994 385.83L6.24974 385.759L6.36181 385.715L6.51802 385.65L6.73876 385.562L7.51644 385.246L9.1601 384.398L10.4302 383.287L12.5493 381.437L12.6138 381.379L12.7768 381.227L12.8651 381.149L13.9756 380.211L14.1454 379.97L15.2423 378.925L15.3816 378.809L16.363 377.977L17.701 376.745L18.8115 375.706L20.4144 374.273L22.255 372.606L23.5523 371.275Z" fill="white" stroke="black"/>
<path id="campina" d="M24.4203 359.19L22.1857 360.487L19.8255 361.845L17.4008 363.42L17.1155 363.148L15.5839 361.142L15.1221 360.585L13.3494 358.395L12.4053 357.224L11.6242 356.273L11.288 355.682L9.82094 353.615L9.11797 352.654L8.99232 352.477L8.1637 351.32L7.43696 350.498L7.27734 350.311L11.9129 345.531L13.9742 343.589L17.3668 339.603L17.8898 338.951L19.8119 335.838L21.5711 337.508L21.6458 337.641L21.948 337.933L22.8649 339.233L23.6324 340.499L24.8312 342.655L25.4153 343.66L26.03 344.838L26.4987 345.596L26.9028 346.346L27.4054 347.31L28.071 348.383L28.7196 349.853L28.8996 350.206L29.7554 351.523L30.8693 353.571L30.6078 353.768L30.2309 353.907L29.3479 354.823L29.1679 355.078L29.0355 355.268L27.7348 356.871L27.0692 357.506L25.85 358.283L24.4203 359.19Z" fill="white" stroke="black"/>
<path id="cidadevelha" d="M15.585 361.141L17.1166 363.148L17.4019 363.419L18.458 364.696L20.5397 367.398L20.8861 367.823L21.9457 369.272L22.557 370.009L23.552 371.276L22.2547 372.606L20.4141 374.273L18.8112 375.706L17.7007 376.745L16.3627 377.978L15.3812 378.809L15.242 378.925L14.1451 379.97L13.9753 380.211L12.8648 381.149L12.7765 381.227L12.6135 381.379L12.549 381.437L10.4299 383.287L9.15978 384.398L7.51612 385.246L6.73844 385.562L6.5177 385.651L6.36148 385.715L6.24941 385.759L6.07961 385.83L5.61097 386.017L5.45475 386.092L4.02504 384.371L3.49866 383.08L2.64287 380.979L2.46628 378.884L2.37119 377.499L1.23014 373.74L1.03317 373.092L0.683384 370.254L0.5 364.967L0.927895 361.077L2.58854 355.906L4.96913 352.568L7.2784 350.311L7.43801 350.497L8.16475 351.319L8.99338 352.477L9.11903 352.653L9.822 353.614L11.2891 355.682L11.6253 356.272L12.4063 357.223L13.3504 358.394L15.1231 360.584L15.585 361.141Z" fill="white" stroke="black"/>
<path id="reduto" d="M26.9033 346.346L26.4992 345.596L26.0306 344.838L25.4159 343.66L24.8318 342.655L23.633 340.499L22.8655 339.233L21.9486 337.933L21.6463 337.641L21.5716 337.508L19.8125 335.838L20.5392 334.67L21.8433 332.484L22.8825 330.426L24.988 325.174L27.0222 326.457L27.192 326.528L27.3991 326.617L28.7881 327.554L29.3383 327.978L31.7494 329.713L34.8771 331.781L36.0623 333.098L36.6464 333.814L37.0166 334.314L37.1524 334.443L36.9181 334.68L38.5482 336.765L39.044 337.328L39.0712 337.369L39.4074 337.861L39.7911 338.394L41.2548 340.381L42.8441 342.329L42.1038 342.492L40.5009 343.436L38.5991 344.743L36.7585 346.146L35.2099 347.589L34.3304 346.482L33.59 345.463L29.3009 347.792L28.0716 348.383L27.4059 347.31L26.9033 346.346Z" fill="white" stroke="black"/>
<path id="nazare" d="M60.4055 349.571L60.7587 354.701L60.813 355.411L61.0711 358.477L59.2407 358.453L58.2083 358.433L58.0079 358.429L57.7498 358.416L57.4442 358.402H56.9246L56.5171 358.406H55.6851L54.5101 358.358L53.2196 358.45L52.1566 358.602L51.6472 358.647L51.2295 358.674L50.9782 358.701L50.2311 358.779L48.9338 358.922L47.2426 359.176L45.0624 359.54L44.5802 357.048L41.9177 357.343L39.6424 357.614L38.087 357.886L37.0547 358.11L34.4092 359.852L33.3157 358.3L32.0829 356.542L30.2321 353.907L30.6091 353.768L30.8706 353.571L29.7567 351.524L28.9009 350.206L28.7209 349.853L28.0723 348.383L29.3016 347.792L33.5908 345.463L34.3311 346.482L35.2106 347.589L36.7592 346.146L38.5998 344.744L40.5016 343.436L42.1045 342.493L42.8448 342.33L43.6055 342.184L44.6753 341.902L45.4529 341.722L48.1799 340.948L49.9832 340.455L54.4761 339.138L56.6903 338.48L57.811 338.133L58.2423 338.014L59.3256 337.682L59.5395 339.922L59.8146 342.516L59.8316 342.72L59.8961 343.572L60.1101 345.619L60.2221 347.399L60.4055 349.571Z" fill="white" stroke="black"/>
<path id="cremacao" d="M54.5121 358.358L55.6871 358.405H56.5191L56.9267 358.402H57.4462L57.7519 358.416L58.01 358.429L58.2103 358.432L59.2427 358.453L61.0732 358.477L64.5031 358.534L66.3132 358.507L67.658 358.534L71.0608 358.27L71.1559 360.894L71.2985 363.505L71.4615 365.881L71.526 366.448L71.6211 367.382L71.8147 370.102L71.8419 370.913L71.8656 371.164L71.7773 372.923L71.6517 375.391H69.7092L69.4409 375.388L68.5477 375.384L68.6462 376.596L68.6666 377.201L68.7209 378.325L68.7413 379.122L68.7515 379.622L68.8126 380.379L68.1029 380.511L67.4474 380.565L65.4098 380.674L65.4064 380.542L65.4132 379.364L62.6659 378.213L60.8015 378.26L59.6638 378.263L58.7265 378.151L58.5024 378.664L58.1186 379.347L57.6738 379.628L57.6364 379.523L57.3138 378.742L56.801 377.398L56.6414 376.994L56.1388 375.714L55.2456 375.999L54.468 376.135L53.7039 376.549L52.9262 376.994L52.5119 377.116L51.6934 377.289L51.7036 377.408L51.758 377.747L51.1671 378.06L50.5931 378.695L49.6015 377.958L50.1313 376.501L49.992 376.563L49.0955 374.957L48.834 374.597L48.7185 374.441L48.6608 374.362L48.6065 374.288L47.102 372.162L47.9544 372.091L47.3364 369.351L46.7523 367.134L46.5757 366.262L46.3583 365.039L45.7504 362.439L45.5671 361.841L45.4176 361.301L45.0645 359.539L47.2447 359.176L48.9359 358.921L50.2332 358.779L50.9803 358.701L51.2316 358.674L51.6493 358.646L52.1587 358.602L53.2216 358.449L54.5121 358.358Z" fill="white" stroke="black"/>
<path id="guama" d="M71.2976 363.506L71.155 360.895L71.0599 358.271L74.1503 357.989L77.6651 357.751L80.6502 357.507L83.9681 357.286H84.6337L85.4046 357.266L86.0532 357.194L86.5796 357.16L86.8818 357.144L87.4388 357.096L90.5122 356.838L91.1506 356.79L93.735 356.587L96.1563 356.339L97.9528 356.298L98.3569 355.904L99.0157 356.172L99.7425 356.363L101.22 356.753L101.953 356.95L103.359 357.33L104.042 357.578L104.296 357.683L106.103 358.383L106.178 358.403V358.471L106.181 358.58L106.215 358.804L106.534 359.598L106.67 360.203L106.647 360.42L106.402 360.983L106.12 361.564L105.556 362.175L105.244 362.433L104.578 363.058L104.042 363.618L103.729 364.127L103.427 364.402L102.914 365.448L102.639 365.984L102.439 366.409L102.082 367.309L102.164 368.344L102.442 369.237L102.901 370.004L103.203 370.283L103.807 370.476L104.296 370.626L104.629 370.806L104.853 371.053L105.003 371.267L105.166 371.824L105.448 373.27L105.927 374.421L106.134 375.022L106.181 375.114L106.81 376.9L107.088 377.586L107.849 379.945L108.548 381.633L109.01 382.75L109.03 382.804L109.197 383.303L109.292 383.697L109.353 383.965L109.373 384.25L109.407 385.405L109.316 385.819L109.129 386.169L109.075 386.27L107.112 388.345L105.692 390.249L105.641 390.314L104.364 389.937L103.675 389.771L103.543 389.737L98.4656 388.335L97.4875 387.87L97.1106 391.492L96.6623 394.724L96.557 397.379L99.8308 402.733L95.1579 403.538L90.2676 400.968L85.8359 398.771L83.024 398.211L76.9791 397.709L75.0943 397.892L72.7749 395.61L71.7425 394.619L72.9175 394.409L73.6069 389.041L72.9447 389.003L72.1195 388.929L71.6916 388.745V387.486L71.6712 387.146L71.678 386.98L71.6508 386.311L71.661 385.632L71.678 384.583H70.9954L70.5199 384.6L70.5301 383.021L70.9139 381.918L71.1448 381.069L71.1957 380.23L70.7305 380.247H70.4147L69.7558 380.275L68.8118 380.38L68.7506 379.623L68.7404 379.124L68.7201 378.326L68.6657 377.202L68.6454 376.598L68.5469 375.386L69.44 375.389L69.7083 375.392H71.6508L71.7765 372.924L71.8648 371.165L71.841 370.914L71.8138 370.103L71.6202 367.383L71.5252 366.45L71.4606 365.883L71.2976 363.506Z" fill="white" stroke="black"/>
<path id="saobras" d="M74.1477 357.989L71.0574 358.27L67.6546 358.535L66.3098 358.508L64.4997 358.535L61.0698 358.478L60.8117 355.412L60.7573 354.702L60.4041 349.572L60.2208 347.399L60.1087 345.62L59.8947 343.573L59.8302 342.721L59.8132 342.517L59.5382 339.923L59.3242 337.682L61.569 337.774L63.6473 337.72L64.7816 337.737L66.792 337.689L67.9942 337.642L70.1642 337.71L71.7128 338.073L73.6315 338.562L74.5043 338.85L75.3024 338.973H75.8457H77.1668L77.1226 336.015L77.0581 334.158L79.0821 335.635L79.3809 335.801L84.2338 339.169L84.3153 339.214L84.424 339.268L82.8924 341.482L82.3898 342.157L82.3321 342.235L82.6445 342.222L84.8179 342.038L86.1424 341.855L86.5261 344.771L86.7808 347.623L86.8759 348.89L86.9167 349.368L86.954 350.363L87.168 352.071L87.2834 353.439L86.1288 353.544L85.5073 353.527L84.9504 353.303L84.9402 354.611L84.5157 354.556L83.9486 354.485L83.918 355.33L83.9587 355.775L83.9655 357.286L80.6476 357.507L77.6626 357.751L74.1477 357.989Z" fill="white" stroke="black"/>
<path id="umarizal" d="M42.8444 342.33L41.2551 340.382L39.7914 338.395L39.4077 337.862L39.0715 337.37L39.0443 337.329L38.5485 336.766L36.9184 334.681L37.1527 334.443L37.0169 334.314L36.6467 333.815L36.0626 333.099L34.8774 331.782L31.7497 329.714L29.3385 327.979L28.7884 327.555L27.3994 326.618L27.1923 326.529L27.0225 326.458L24.9883 325.175L26.9919 317.349L27.7832 314.5L29.0635 309.289L29.1586 308.393L32.8975 309.459L34.6499 310.09L34.7382 310.121L34.857 310.165L34.9419 310.192L37.2037 310.847L41.1124 311.951L43.3334 312.49L46.9943 313.411L49.5922 314.052L50.8012 314.385L51.28 314.528L52.4619 314.935L54.4179 315.407H54.7813L55.4469 315.353L55.7492 315.261L56.1974 316.246L56.734 316.965L58.0551 317.831L59.7021 318.982L59.8447 319.08L60.001 319.193L60.0926 319.257L60.1674 319.308L62.3204 320.758L62.8162 321.233L63.0641 321.518L63.38 321.766L64.8301 322.594L64.9319 322.662L65.2172 322.849L65.2681 322.886L65.1425 323.104L64.5006 324.204L64.3071 324.377L64.1203 324.608L63.886 324.9L63.1898 325.497L63.183 326.04L63.2204 328.078L63.2136 328.356L63.3426 331.218L63.3494 331.327L63.5362 334.454L63.6482 337.72L61.5699 337.774L59.3252 337.682L58.2418 338.015L57.8105 338.134L56.6899 338.48L54.4757 339.139L49.9828 340.456L48.1795 340.949L45.4525 341.723L44.6748 341.903L43.6051 342.184L42.8444 342.33Z" fill="white" stroke="black"/>
<path id="marco" d="M76.9607 330.668L76.9336 328.356L77.5211 327.429L77.0694 327.14L74.6786 325.687L74.1013 325.317L73.7991 325.12L73.4289 324.899L72.6954 324.4L72.3795 324.156L72.006 323.911L71.8056 323.772L71.5611 323.568L71.1807 323.256L70.9668 323.107L71.7479 322.163L72.2607 321.552L72.8448 320.832L74.7805 318.547L74.8246 318.493L75.8672 317.223L76.6347 316.286L78.5297 314.004L78.9542 313.509L79.3549 313.05L80.4178 311.747L81.2091 310.816L81.4672 310.511L81.4774 310.501L82.2755 309.4L81.2804 308.694L82.3264 307.36L82.6184 307.183L83.2331 306.46L84.2315 304.977L84.87 304.009L86.6325 301.772L87.5257 300.339L88.3441 299.205L88.9791 298.292L89.9674 296.638L91.611 294.119L92.4227 293.009L93.2683 291.719L93.3634 291.783L96.4265 287.58L96.5556 287.125L99.5339 290.771L102.719 294.669L105.12 297.463L108.448 301.188L108.798 301.486L109.08 301.493L109.246 301.717L109.26 302.291L109.997 304.291L110.792 305.975L110.951 306.335L111.624 307.856L111.929 308.362L112.079 308.667L112.371 309.136L112.67 310.409L113.277 311.58L113.695 312.47L113.719 312.524L113.746 312.585L113.872 312.894L114.147 313.458L114.225 313.672L114.792 315.23L115.288 316.377L115.536 317.474L115.706 318.296L116.989 321.345L117.139 321.701L117.998 323.738L119.19 326.369L119.356 326.729L120.372 329.547L120.677 331.666L120.783 332.976L118.124 333.044L117.913 333.065L114.296 333.401L113.997 333.822L113.712 333.998L112.955 334.202L112.782 334.246L111.756 334.474L110.866 335.068L110.255 335.845L109.776 336.847L109.267 337.753L109.138 338.042L109.019 338.371L108.927 338.847L108.9 338.945L108.883 339.02L108.795 339.532L108.747 339.756L108.584 340.71L106.693 340.676L105.962 340.693L105.531 340.71L105.046 340.744H104.186L103.497 340.561L102.716 340.062L102.505 339.868L101.938 340.68L101.521 340.581L100.383 340.547L97.8359 340.653L96.8409 340.643L96.6507 340.66L95.1666 340.785L94.2973 340.863L92.1102 341.104L91.4242 341.288L91.0099 341.4L89.6651 341.498L87.5324 341.81L86.1435 341.855L84.819 342.038L82.6456 342.221L82.3332 342.235L82.3909 342.157L82.8935 341.481L84.4251 339.268L84.3164 339.213L84.2349 339.169L79.3821 335.801L79.0832 335.635L77.0592 334.158L77.0083 331.564L76.9607 330.668Z" fill="white" stroke="black"/>
<path id="canudos" d="M86.528 344.77L86.1443 341.854L87.5333 341.81L89.6659 341.498L91.0108 341.399L91.4251 341.287L92.1111 341.104L94.2981 340.863L95.1675 340.785L96.6515 340.659L96.8417 340.642L97.8367 340.652L100.384 340.547L101.521 340.581L101.939 340.679L102.024 342.825L102.645 342.842L102.506 345.67L101.002 345.887L101.114 346.536L101.426 347.836L101.545 348.549L101.521 348.875L101.735 349.401L102.204 349.982L102.659 350.569L103.454 351.415L103.28 351.673L103.236 351.798L103.162 352.345L103.168 352.43L103.189 352.807L103.243 354.104L103.294 355.526L103.297 355.594L103.359 357.329L101.953 356.949L101.219 356.752L99.7419 356.361L99.0151 356.171L98.3563 355.903L97.9522 356.297L96.1557 356.338L93.7343 356.586L91.15 356.789L90.5115 356.837L87.4382 357.095L86.8812 357.142L86.579 357.159L86.0526 357.193L85.404 357.265L84.6331 357.285H83.9675L83.9607 355.774L83.9199 355.329L83.9505 354.484L84.5176 354.555L84.9421 354.61L84.9523 353.302L85.5092 353.526L86.1307 353.543L87.2853 353.438L87.1699 352.07L86.9559 350.362L86.9186 349.367L86.8778 348.889L86.7827 347.622L86.528 344.77Z" fill="white" stroke="black"/>
<path id="parqueverde" d="M129.589 192.866L129.331 192.486L129.079 192.812L124.841 199.069L124.763 199.184L123.089 197.687L122.213 196.662L120.345 194.149L117.373 190.119L117.071 189.114L116.986 189.046L116.049 188.785L113.271 188.812L112.863 188.819L111.892 188.856L111.386 188.873L109.559 188.951L104.733 189.155L101.253 189.26L98.1452 189.318L98.5969 187.926L98.5833 185.488L98.5697 184.643L98.5493 183.682L98.5527 183.108L98.5459 182.803L98.5222 181.825L98.3965 176.138L98.2879 171.168L98.1792 169.144L98.152 168.465L98.1011 167.983L98.023 167.199V167.09L98.0501 165.963L97.8905 163.25L97.972 162.934L98.0501 162.625L98.0535 162.282L98.0298 161.671L98.0162 161.237L97.9652 159.763L97.9279 159.308L97.8192 156.361L97.5475 155.713L97.3302 155.193L96.6646 153.367L96.3352 152.494L96.2027 152.084L95.9786 151.612L95.9005 151.462L95.5405 150.647L95.0209 149.388L94.6372 148.478L94.2466 147.317V146.505L93.8391 145.456L93.8323 145.432L93.5742 144.706L93.8866 144.58L94.7628 144.733L95.9956 145.011L96.5695 145.09L96.8106 145.134L97.32 145.225L98.8754 145.507L100.539 145.779L100.587 145.786L102.55 146.125L105.83 146.695L106.944 146.855L107.63 146.736L108.106 146.556L108.615 146.288L109.023 145.935L109.59 145.215L110.035 144.444L110.429 144.366L111.42 143.052L112.459 141.993L118.973 151.897L119.492 151.564L120.606 153.173L121.73 154.959L121.808 155.465L122.63 155.56L124.559 155.923L125.323 155.934L126.356 155.951L128.404 156.976L128.726 157.186L129.365 157.601L130.39 158.151L129.945 159.21L129.494 160.68L130.658 160.778L130.36 164.275L129.725 164.703L128.21 165.725L127.161 166.387L126.638 166.394L126.237 166.272L127.51 167.48L128.244 168.061L128.906 168.601L129.579 169.209L130.19 169.752L130.815 170.305L131.229 170.672L131.725 171.123L132.251 171.483L133.161 172.24L133.494 172.505L135.501 170.886L135.909 171.331L137.226 172.974L140.867 177.523L139.936 178.236L139.193 178.813L141.638 182.052L141.526 182.13L141.665 182.314L141.716 182.389L142.371 183.329L143.478 185.2L144.439 186.52L143.682 187.101L142.874 187.719L141.22 188.989L139.237 190.506L137.905 191.528L135.226 193.589L133.61 194.828L131.504 196.451L131.338 196.135L130.781 194.981L130.699 194.811L130.458 194.309L130.078 193.677L130.064 193.654L130.017 193.572L129.589 192.866Z" fill="white" stroke="black"/>
<path id="cabanagem" d="M143.682 187.101L144.439 186.52L143.478 185.2L142.371 183.329L141.715 182.388L141.664 182.314L141.525 182.13L141.637 182.052L139.192 178.813L139.936 178.236L140.866 177.523L137.226 172.974L135.908 171.33L135.501 170.886L133.494 172.505L133.161 172.24L132.251 171.483L131.724 171.123L131.228 170.672L130.814 170.305L130.189 169.752L129.578 169.209L128.906 168.601L128.243 168.061L127.51 167.48L126.236 166.272L126.637 166.394L127.16 166.387L128.209 165.725L129.724 164.703L130.359 164.275L130.383 164.466L131.167 164.584L131.378 164.554L133.276 164.822L133.599 164.876L134.03 164.951L134.421 165.009L134.451 165.019L135.63 165.195L137.331 165.389L143.729 166.177L144.388 166.299L144.935 166.458L145.223 166.611L145.458 166.862L145.977 167.613L146.388 168.292L146.616 168.587L147.095 169.273L147.4 169.663L147.767 170.108L148.973 171.463L149.027 171.534L149.159 171.718L149.21 171.982L150.164 173.402L150.912 174.41L151.231 174.807L151.282 174.872L152.902 177.028L153.082 177.275L153.387 178.199L153.489 178.467L153.51 178.525L153.615 178.688L154.06 179.19L155.225 180.827L155.452 181.333L155.571 181.594L155.897 182.327L156.383 183.478L156.654 183.828L156.858 184.072L157.299 184.796L157.578 186.198L157.028 188.242L157.242 189.566L157.33 189.956L157.456 190.292L157.666 190.988L157.904 191.745L157.911 191.99V192.082L157.918 192.377L156.807 196.01L156.155 197.887L156.237 198.397L155.887 199.218L155.663 199.833L154.949 201.014L154.335 201.941L153.679 202.926L153.611 203.197L153.204 203.622L150.215 206.395L148.857 204.817L147.645 203.065L146.578 201.496L145.502 199.962L144.272 198.176L141.861 194.933L140.075 192.581L139.803 192.214L140.255 191.895L139.236 190.506L141.219 188.989L142.873 187.719L143.682 187.101Z" fill="white" stroke="black"/>
<path id="pratinha" d="M53.0816 205.75L53.0782 205.76L48.351 205.862L44.5101 206.049L34.6074 206.168L34.8214 205.696L38.9067 201.011L40.6387 199.024L42.8121 196.529L44.1196 195.032L45.0297 192.93L46.1945 190.238L46.5036 189.521L46.5375 189.321L48.5038 175.612L48.9045 172.777L49.2679 169.521L50.7078 156.548L54.98 156.928L55.7339 156.898L57.1534 157.033L59.5442 157.349L59.9076 156.972L60.7056 157.291H60.743L60.8245 157.285L60.9943 157.271H61.0656L61.215 157.261L61.3441 157.159L61.4799 156.949L61.5784 156.612L61.6633 156.293L61.6735 155.957V155.574L61.7142 155.366L61.8433 155.119L61.9791 155.017L62.1727 154.962L62.3731 154.949L62.407 154.979L62.5191 155.061L62.5564 155.078L62.7126 155.149L62.9266 155.248L63.1575 155.339L63.3171 155.363L63.3715 155.349L63.4937 155.319L63.6771 155.271H63.762H63.8469L64.0744 155.339L64.1118 155.353L64.3122 155.536L64.4344 155.747L64.5635 155.998L64.6212 156.164L64.6993 156.361L64.7774 156.524L64.8793 156.602L64.988 156.633L65.1136 156.629L65.2257 156.49L65.3004 156.3L65.4023 156.062V155.811L65.4668 155.597L65.623 155.465L65.9388 155.278L66.1426 155.183L66.4584 155.034L66.6826 154.959L66.8693 154.973L67.0493 155.03L67.2225 155.203L67.3516 155.458L67.5146 155.58L67.8168 155.686L68.0511 155.767L68.2447 155.835L68.4621 155.832L68.5877 155.821L68.6964 155.774L68.7473 155.635L68.7677 155.322L68.7881 155.136L68.8628 154.969L69.0496 154.684L69.182 154.501L69.2771 154.338L69.3382 154.185L69.3824 154.046L69.4401 153.937L69.508 153.923L69.5726 153.907L69.6642 153.92L69.7559 154.019L69.8918 154.097L70.1499 154.178L70.177 154.185L70.2585 154.212L70.3299 154.209L70.5132 154.205L70.8936 154.019L71.2298 154.063L71.7086 154.484L72.038 154.423L72.269 154.131L72.3505 153.655L72.6154 153.71L72.6561 153.876L72.5135 154.436L72.4422 154.718L72.5135 155.112L72.7614 155.404L72.7818 155.594L72.5916 155.838L72.7546 156.195L72.8701 156.548L72.6969 156.755L72.2622 156.83L71.9871 156.986L72.1229 157.288H72.235L72.3437 157.19L72.4422 157.302L72.4795 157.59L72.741 158.008L73.0466 158.028L73.4542 157.804L73.6477 157.203L73.9432 156.877L74.2319 156.735L74.4492 156.782L74.653 156.942L74.8567 157.224L75.3118 157.339L75.8857 157.458L76.2491 157.397L76.5513 157.166L76.7585 156.942L77.0743 156.758L77.166 156.85L77.2237 157.01L77.3596 156.999L77.5294 156.837L77.7365 156.714L77.835 156.796L77.852 156.976L77.8316 157.112L77.9708 157.139L78.178 157.027L78.3614 156.891L78.5312 156.911L78.5719 157.112L78.7485 157.203L78.9659 157.176L79.2138 157.22L79.4243 157.353L79.5466 157.509L79.679 157.533L79.4854 158.955L79.5364 159.471L79.5839 161.237L79.6451 162.262L79.6654 162.88L79.679 163.192L79.6756 163.701L79.6892 164.024L79.713 164.411L79.6926 164.924L79.7401 165.915L79.8454 169.66L79.8522 172.427V173.313V174.05L79.8556 174.179V174.865L79.8386 176.111L79.9269 176.746L79.9575 176.953L79.9745 177.085L79.9711 177.387L80.0322 177.961L80.039 178.307L80.0628 179.061L80.0696 179.567L80.0933 181.01L80.1205 182.612L80.005 182.677L78.0388 184.619L77.7467 184.901L76.2593 186.327L75.254 187.291L74.7888 187.722L73.933 188.513L71.2909 188.601L61.3305 188.781L58.5661 188.87L58.1077 190.153L56.7866 194.733L55.6456 198.213L55.5811 198.413L55.4792 198.716L54.8306 200.627L54.2532 202.199L53.9272 203.38L53.7133 203.913L53.5095 204.43L53.0816 205.75Z" fill="white" stroke="black"/>
<path id="saoclemente" d="M80.1273 182.609L80.1206 182.613L80.0934 181.01L80.0696 179.567L80.0628 179.061L80.0391 178.308L80.0323 177.961L79.9711 177.388L79.9745 177.085L79.9575 176.953L79.927 176.746L79.8387 176.111L79.8557 174.865V174.179L79.8523 174.05V173.313V172.427L79.8455 169.66L79.7402 165.915L79.6927 164.924L79.713 164.411L79.6893 164.024L79.6757 163.702L79.6791 163.193L79.6655 162.88L79.6451 162.262L79.584 161.237L81.0782 161.206L82.4298 161.189L82.474 161.288L82.4774 161.57L82.5793 161.651L82.6574 161.841L82.6913 161.923L82.7015 162.014L82.8068 162.714L82.834 162.887L82.8577 163.04L82.8985 163.43L82.9189 163.488L82.9528 163.58L82.9868 163.675L83.0207 163.77L83.143 163.926L83.2686 164.174L83.3535 164.286L83.5641 164.384L83.8052 164.466L84.0497 164.401L84.2501 164.391L84.3214 164.377L84.4097 164.357L84.5829 164.327L85.0549 164.394L85.2281 164.591L85.6696 164.652L86.0601 165.335L86.4065 165.6L87.0416 166.465L87.3744 166.625L88.0468 167.908L88.1487 168.455L88.2913 168.788L88.5358 168.896L88.6649 169.379L88.6751 169.46L90.261 169.379L90.7636 169.368L91.6703 169.396L91.8096 169.399L93.7419 169.355L98.1804 169.144L98.2891 171.168L98.3978 176.138L98.5234 181.825L98.5472 182.803L98.554 183.108L98.5506 183.682L98.571 184.643L98.5846 185.488L98.5981 187.926L95.6131 188.021L95.321 188.337L94.6554 188.66L94.2003 188.901L93.9524 189.389L93.8098 189.664L92.7163 190.595L91.8707 191.654L90.9606 192.554L90.1184 193.117L90.1931 193.582L89.4324 193.854L89.5716 194.336L88.7396 194.934L88.6037 194.031L88.3117 191.956L85.33 192.041L85.0957 188.289L87.7547 188.296L87.5782 187.03L87.1231 183.957L86.2096 183.367L85.9243 183.288L85.6356 183.217L85.1161 183.261L84.5897 183.305L84.1584 183.268L83.8765 183.22L83.598 183.176L83.0343 183.217L82.4706 183.261L82.0732 182.939L81.6148 182.905L81.1563 182.871L80.7862 182.728L80.4194 182.582L80.1273 182.609Z" fill="white" stroke="black"/>
<path id="bengui" d="M79.8299 198.023L79.5684 192.075L85.328 192.041L88.3096 191.956L88.6017 194.03L88.7375 194.933L89.5696 194.336L89.4303 193.854L90.191 193.582L90.1163 193.117L90.9585 192.553L91.8686 191.654L92.7142 190.594L93.8078 189.664L93.9504 189.389L94.1983 188.9L94.6534 188.659L95.319 188.337L95.611 188.021L98.5961 187.926L98.1444 189.318L101.252 189.26L104.733 189.155L109.558 188.951L111.385 188.873L111.891 188.856L112.863 188.819L113.27 188.812L116.048 188.785L116.985 189.046L117.07 189.114L117.373 190.119L120.344 194.149L122.212 196.661L123.088 197.687L124.762 199.184L124.677 199.31L123.621 200.899L123.591 200.946L123.519 201.021L122.025 202.579L119.695 204.127L118.598 204.986L117.176 206.691L117.074 204.898L117.057 204.185L116.917 204.182L115.895 204.185L114.136 204.27L113.552 204.083L113.355 204.304L112.258 204.528L110.462 204.559L109.046 204.63L105.931 204.497L104.756 204.525L104.318 204.535L104.115 204.538L102.539 204.603L102.301 204.569L101.045 204.616L99.3194 204.681L98.2191 204.722L96.1408 204.732L94.5379 204.735L93.2338 204.779L90.191 204.874L85.6472 204.789L83.4296 204.749L81.4769 204.508L80.8486 204.555L80.4751 204.525L79.7755 204.694L79.8299 198.023Z" fill="white" stroke="black"/>
<path id="tapana" d="M79.535 159.472L79.4841 158.956L79.6777 157.534L79.5452 157.51L79.423 157.354L79.2124 157.221L78.9645 157.177L78.7472 157.204L78.5706 157.113L78.5298 156.912L78.36 156.892L78.1766 157.028L77.9695 157.14L77.8303 157.113L77.8506 156.977L77.8337 156.797L77.7352 156.716L77.528 156.838L77.3582 157.001L77.2224 157.011L77.1646 156.851L77.0729 156.76L76.7571 156.943L76.55 157.167L76.2477 157.398L75.8844 157.459L75.3104 157.34L74.8554 157.225L74.6516 156.943L74.4478 156.783L74.2305 156.736L73.9418 156.878L73.6464 157.204L73.4528 157.805L73.0453 158.029L72.7397 158.009L72.4782 157.591L72.4408 157.303L72.3423 157.191L72.2337 157.289H72.1216L71.9858 156.987L72.2608 156.831L72.6955 156.756L72.8687 156.549L72.7532 156.196L72.5902 155.84L72.7804 155.595L72.76 155.405L72.5121 155.113L72.4408 154.719L72.5121 154.437L72.6548 153.877L72.614 153.711L72.3491 153.656L72.2676 154.132L72.0367 154.424L71.7073 154.485L71.2285 154.064L70.8922 154.02L70.5119 154.207L70.3285 154.21L70.2572 154.213L70.1757 154.186L70.1485 154.179L69.8904 154.098L69.7546 154.02L69.6629 153.921L69.5712 153.908L69.5067 153.925L69.4388 153.938L69.381 154.047L69.3369 154.186L69.2758 154.339L69.1807 154.502L69.0482 154.685L68.8614 154.97L68.7867 155.137L68.7664 155.324L68.746 155.636L68.695 155.775L68.5864 155.823L68.4607 155.833L68.2434 155.836L68.0498 155.768L67.8155 155.687L67.5132 155.582L67.3502 155.459L67.2212 155.205L67.048 155.032L66.868 154.974L66.6812 154.96L66.4571 155.035L66.1413 155.184L65.9375 155.279L65.6217 155.466L65.4655 155.599L65.4009 155.812V156.064L65.299 156.301L65.2243 156.491L65.1123 156.631L64.9866 156.634L64.8779 156.603L64.7761 156.525L64.698 156.362L64.6198 156.165L64.5621 155.999L64.4331 155.748L64.3108 155.537L64.1104 155.354L64.0731 155.34L63.8456 155.273H63.7607H63.6758L63.4924 155.32L63.3701 155.351L63.3158 155.364L63.1562 155.34L62.9253 155.249L62.7113 155.15L62.5551 155.079L62.5177 155.062L62.4057 154.981L62.3717 154.95L62.1713 154.964L61.9778 155.018L61.8419 155.12L61.7129 155.368L61.6721 155.575V155.958L61.6619 156.295L61.577 156.614L61.4786 156.95L61.3427 157.16L61.2137 157.262L61.0642 157.272H60.9929L60.8231 157.286L60.7416 157.293H60.7043L59.9062 156.974L59.5428 157.35L57.1521 157.035L55.7325 156.899L54.9786 156.929L50.7065 156.549L51.2498 151.657L49.8711 140.993L46.4411 128.261L46.3121 127.544L41.8497 102.634L40.0566 92.6425L44.9944 92.7036L45.7959 92.3098L45.9826 92.2181L46.5973 91.9125L47.8165 90.7141L48.8455 89.0946L49.2496 87.6245L48.713 86.5414L48.6179 85.893L48.8523 84.9219L49.4364 84.433L49.7997 84.3889L50.3635 84.3244L51.3279 84.7013L52.3909 85.3667L53.1074 86.2121L53.7595 86.6093L55.0432 86.7383L56.0144 86.6263L56.8566 86.392L58.5818 86.0016L59.8145 85.3599L59.7296 84.6775L59.4783 84.0426L59.1998 83.4179L59.2066 82.7932L60.0013 82.4639L60.093 82.4774L60.1847 82.491L60.8197 82.946L60.8367 83.754L60.8741 83.9136L61.0235 84.484L61.2748 85.3939L61.431 85.9982L61.5906 85.9914L61.9506 85.9778L62.9015 85.7945L63.2615 86.1068L62.9728 90.3576L63.4992 90.4153L64.2667 90.3711L64.63 90.5443L64.9221 91.0909L65.3704 91.6545L65.6013 89.9332H67.0004L66.8204 91.9465L66.2601 92.2419L67.4793 92.2894L67.9683 92.8224L68.7222 93.0058L69.2452 93.291L69.3369 93.7018L68.8954 94.7203L69.3539 94.9478L69.9346 94.6728L70.2266 94.9546L70.1961 95.2907L69.9957 95.7117L70.0636 96.0207L70.4542 96.2006L70.9092 96.2379L71.1979 96.6555L71.4424 97.2463L71.8873 97.6945L72.648 97.8744L72.9298 98.1053L73.0385 98.5195L73.0181 100.784L73.0147 101.558L74.5735 101.687L74.689 101.314L75.1746 90.9076L76.9575 94.1363L79.1241 94.649L79.0664 95.2669L79.0596 95.4095L79.0494 95.5487L79.1445 95.4774L79.5656 95.2194L80.2414 95.0598L80.5912 95.0734L81.6508 95.6472L81.7492 95.7151L82.3028 96.0919L84.1808 97.1343L84.6936 97.4194L85.0535 97.6469L86.1165 98.2886L86.3508 98.4312L86.0961 104.298L85.5901 115.563L89.3427 118.082L93.4247 121.002L94.8985 121.776L94.8408 121.926L95.6049 122.255L96.8886 122.635L96.9633 122.35L97.7647 122.489L97.6085 123.321L100.543 125.27H100.549L102.023 126.183L102.244 126.319L104.159 127.504L105.688 128.451L108.021 129.894L111.76 132.206L112.16 132.78L112.072 133.275L112.004 133.646L111.909 134.253L111.763 135.156L111.743 135.282L111.634 135.964L111.464 136.993L111.4 137.411L111.172 138.81L111.036 139.655L110.88 140.935L110.483 143.468L110.428 144.367L110.034 144.445L109.59 145.216L109.022 145.936L108.615 146.289L108.106 146.557L107.63 146.737L106.944 146.856L105.83 146.696L102.55 146.126L100.587 145.787L100.539 145.78L98.8752 145.508L97.3199 145.226L96.8105 145.135L96.5693 145.091L95.9954 145.012L94.7627 144.734L93.8865 144.581L93.5741 144.707L93.8322 145.433L93.839 145.457L94.2465 146.506V147.318L94.637 148.479L95.0208 149.389L95.5403 150.648L95.9003 151.463L95.9784 151.613L96.2026 152.085L96.335 152.495L96.6644 153.368L97.33 155.194L97.5474 155.714L97.8191 156.362L97.9277 159.309L97.9651 159.764L98.016 161.238L98.0296 161.672L98.0534 162.284L98.05 162.626L97.9719 162.935L97.8904 163.251L98.05 165.964L98.0228 167.091V167.2L98.1009 167.984L98.1519 168.466L98.179 169.145L93.7405 169.356L91.8082 169.4L91.6689 169.396L90.7622 169.369L90.2596 169.379L88.6737 169.461L88.6635 169.379L88.5344 168.897L88.2899 168.789L88.1473 168.456L88.0454 167.909L87.373 166.626L87.0402 166.466L86.4051 165.601L86.0587 165.336L85.6682 164.653L85.2267 164.592L85.0535 164.395L84.5815 164.327L84.4083 164.358L84.32 164.378L84.2487 164.392L84.0483 164.402L83.8038 164.467L83.5627 164.385L83.3521 164.287L83.2672 164.175L83.1416 163.927L83.0193 163.771L82.9854 163.676L82.9514 163.58L82.9175 163.489L82.8971 163.431L82.8563 163.041L82.8326 162.888L82.8054 162.715L82.7001 162.015L82.6899 161.924L82.656 161.842L82.5779 161.652L82.476 161.571L82.4726 161.289L82.4284 161.19L81.0768 161.207L79.5826 161.238L79.535 159.472Z" fill="white" stroke="black"/>
<path id="paracuri" d="M74.6859 101.312L74.5704 101.686L73.0116 101.557L73.015 100.783L73.0354 98.518L72.9267 98.1038L72.6449 97.873L71.8842 97.693L71.4393 97.2449L71.1948 96.6541L70.9061 96.2365L70.4511 96.1992L70.0605 96.0192L69.9926 95.7103L70.193 95.2893L70.2235 94.9531L69.9315 94.6714L69.3508 94.9464L68.8923 94.7189L69.3338 93.7003L69.2421 93.2895L68.7191 93.0043L67.9652 92.821L67.4762 92.288L66.257 92.2404L66.8173 91.9451L66.9973 89.9317H65.5982L65.3673 91.6531L64.919 91.0895L64.6269 90.5429L64.2636 90.3697L63.4961 90.4139L62.9697 90.3561L63.2583 86.1054L62.8984 85.7931L61.9475 85.9764L61.5875 85.99L61.4279 85.9968L61.2717 85.3924L61.0204 84.4825L60.871 83.9122L60.8336 83.7526L60.8166 82.9446L60.1816 82.4896L60.0899 82.476L59.9982 82.4624L59.2035 82.7918L59.1967 83.4165L59.4752 84.0412L59.7265 84.6761L59.8114 85.3585L58.5787 86.0002L56.8535 86.3906L56.0113 86.6249L55.04 86.7369L53.7564 86.6079L53.1043 86.2107L52.3878 85.3653L51.3248 84.6998L50.3604 84.323L49.7966 84.3875L49.4333 84.4316L48.8491 84.9205L48.6148 85.8915L48.7099 86.54L49.2465 87.6231L48.8424 89.0932L47.8134 90.7126L46.5942 91.9111L45.9795 92.2167L45.7928 92.3083L44.9913 92.7022L40.0535 92.6411L39.2181 87.9965L38.7087 86.6962L34.7048 76.5345L34.3177 75.5533L33.394 73.2039L32.8574 70.4301L37.4013 69.931L38.8412 69.7545L42.2236 69.4387L42.682 70.9903L43.2458 72.6675L50.289 72.5011L50.1498 70.4471L50.0377 68.7563L53.9024 68.4371L55.8483 68.4575L57.6074 68.3862L58.144 68.4236L59.1967 68.5118L59.5058 68.4949L60.8879 68.4168L60.9966 68.41L62.501 68.2572L63.564 68.1825L64.6711 67.8464L66.6883 67.6291L66.8038 67.6155L70.0062 67.2828L73.4158 66.9263L75.1443 66.7531L75.4194 66.726L77.749 66.4951L77.9358 68.2742L78.0037 68.8004L78.0003 69.0652L77.9902 69.7307L78.0207 70.5557L78.0343 70.8545L78.0581 71.1465L78.0717 71.3705L78.0785 71.4418L78.143 73.3397L77.9494 74.4839L78.0377 74.9898L78.3943 75.0814L78.5199 75.224L78.6014 77.991L77.8611 78.0623L78.2211 81.0365L76.7574 80.7377L76.2922 81.1893L76.0646 81.6884L76.2922 82.3674L76.7133 82.802L76.8865 83.2263L76.5129 83.9699L76.2582 85.1073L78.7067 90.6515L79.1754 93.0145L79.138 93.9244L79.121 94.6476L76.9544 94.1349L75.1715 90.9062L74.6859 101.312Z" fill="white" stroke="black"/>
<path id="parqueguajara" d="M78.2229 81.0359L77.8629 78.0618L78.6032 77.9905L78.5217 75.2235L78.3961 75.0809L78.0395 74.9892L77.9512 74.4833L78.1448 73.3392L78.0802 71.4413L78.0734 71.37L78.0599 71.1459L78.0361 70.8539L78.0225 70.5552L77.9919 69.7301L78.0021 69.0647L78.0055 68.7999L77.9376 68.2736L77.7508 66.4946L77.7033 65.8631L77.6897 65.7341L77.4622 63.7751L84.4341 63.1538L84.373 62.4544L84.8688 62.3898L85.3782 62.3253L86.2578 62.2371L87.1204 62.1352L87.9829 62.0198L89.4059 61.8568L90.3228 61.755L91.4061 61.6293L92.0106 61.4087L92.3026 61.025L92.9241 60.8213L93.7493 61.6904L94.4455 62.6411L95.5968 64.3353L95.9771 64.9905L96.7072 65.9072L97.9332 67.6217L99.6584 70.1919L100.212 71.0508L100.324 71.1561L100.372 71.2376L100.942 72.1033L101.19 72.3885L102.898 74.7753L104.637 77.376L107.099 80.9069L107.568 81.5826L108.746 83.2699L109.276 84.027L109.816 84.7774L109.836 84.8113L110.053 85.0592L110.563 85.6703L112.084 87.4358L112.488 87.9858L113.093 88.8719L113.171 88.9907L114 90.2164L114.458 90.8988L115.263 92.0565L115.772 92.9834L115.99 93.4214L116.227 93.9069L116.835 95.0646L116.873 95.3023L117.066 96.5585L117.117 97.8826L117.07 98.6126L117.039 99.1218L116.941 100.392L116.587 102.32L116.234 104.585L116.085 105.542L116.034 105.882L116.01 106.048L115.983 106.235L115.918 106.673L115.915 106.693L115.477 109.671L115.277 111.029L115.249 111.232L115.13 112.051L114.618 115.663L114.431 116.967L114.288 117.965L114.231 118.362L113.623 122.586L113.052 126.561L112.886 127.736L112.648 129.393L112.471 130.646L112.291 131.905L112.159 132.778L111.758 132.204L108.019 129.892L105.686 128.449L104.158 127.502L102.243 126.317L102.022 126.181L100.548 125.268H100.541L97.6072 123.319L97.7634 122.487L96.9619 122.348L96.8872 122.633L95.6035 122.253L94.8394 121.924L94.8972 121.774L93.4233 121L89.3413 118.08L85.5888 115.561L86.0948 104.296L86.3495 98.4292L86.1151 98.2866L85.0522 97.6449L84.6922 97.4175L84.1794 97.1323L82.3014 96.09L81.7479 95.7131L81.6494 95.6452L80.5899 95.0714L80.2401 95.0578L79.5643 95.2174L79.1432 95.4755L79.0481 95.5467L79.0583 95.4075L79.0651 95.265L79.1228 94.647L79.1398 93.9239L79.1771 93.014L78.7085 90.651L76.26 85.1067L76.5147 83.9693L76.8882 83.2258L76.715 82.8014L76.2939 82.3668L76.0664 81.6878L76.2939 81.1887L76.7592 80.7372L78.2229 81.0359Z" fill="white" stroke="black"/>
<path id="tenone" d="M126.783 105.274L126.576 105.264H126.525L125.391 105.407L125.299 105.417L124.203 105.488L121.934 105.638L121.357 105.668L120.779 105.699L119.873 105.75L119.387 105.773L119.054 105.794L117.682 105.902L116.151 105.885L116.035 105.882L116.086 105.542L116.236 104.585L116.589 102.321L116.942 100.392L117.04 99.1223L117.071 98.613L117.118 97.8831L117.068 96.559L116.874 95.3028L116.837 95.0651L116.229 93.9074L115.991 93.4219L115.774 92.9839L115.264 92.057L114.459 90.8993L114.001 90.2168L113.172 88.9912L113.094 88.8724L112.49 87.9862L112.086 87.4362L110.564 85.6707L110.055 85.0596L109.837 84.8118L109.817 84.7778L109.277 84.0275L108.747 83.2704L107.569 81.583L107.1 80.9074L104.638 77.3764L102.899 74.7758L101.191 72.389L100.943 72.1038L103.338 71.7371L104.336 71.564L105.331 71.3976L106.326 71.2516L107.287 71.1124L108.289 70.963L109.311 70.8136L109.933 70.722L111.128 70.4945L111.108 70.2399L112.894 70.1244L114.748 69.9886L115.651 69.9207L116.623 69.8494L118.657 69.6966L120.494 69.5608L122.437 69.5642L122.457 68.875L122.484 68.0126L122.851 68.2435L122.878 68.2605L122.912 68.2809L123.557 68.6611L123.781 68.7901L124.814 69.2824L125.052 69.3945L132.889 73.635L134.577 72.9933L134.896 72.4908L134.866 71.7711L134.849 71.6115L135.192 71.513L135.199 71.5096L135.871 71.1735L136.9 70.4266L137.977 69.3469L138.795 69.1568H138.805L139.569 68.7562L140.075 68.7087H140.544L141.559 68.5219L142.364 67.9176L142.69 67.8361L142.561 67.5373L142.558 67.0688L142.616 66.6376L142.734 66.4373L142.853 66.2438L143.04 65.9959L143.532 65.7107L143.869 65.5444L144.286 65.232L144.436 64.6379L144.629 63.5854L144.928 62.9199L145.523 61.9999L147.095 60.6282L147.631 59.7251L147.808 58.8865L147.71 56.1229L148.008 55.0025L148.803 54.2997L149.7 54.0417L152.365 54.4796L153.299 54.2997L154.135 54.1605L154.909 54.242L156.301 54.7614L157.653 55.0432L159.283 55.1009L160.716 54.6426L161.572 53.9194L164.577 50.7246L165.128 52.0453L165.807 52.687L166.557 55.0398L166.724 57.6846L166.588 59.0834L166.449 60.4822L166.775 62.1187L167.573 64.1626L168.707 67.0688L169.576 69.7645L170.32 73.9032L169.468 76.4597L168.133 77.7193L164.51 79.2607L164.194 79.3965L162.873 80.8666L162.669 81.6679L162.598 81.9531L162.798 84.822L162.353 85.7421L162.248 85.9525V86.8624V87.6909L161.871 89.3409L160.859 91.5987L160.672 93.5271L160.597 94.2333L161.069 95.7917L161.127 95.9784L161.331 96.654L161.375 96.7864L161.66 97.7337L162.333 99.7809L162.492 100.27L162.122 101.866L162.061 102.137L161.273 102.962L150.966 103.808L150.763 103.821L145.669 104.235L145.142 104.279L144.945 104.293L143.105 104.432L141.098 104.585L139.766 104.69L134.047 105.023L133.151 105.325L132.771 105.376L132.037 105.471L130.967 105.607L129.904 105.624L128.835 105.61L127.765 105.688L127.683 105.403L127.351 105.271L127.038 105.288L126.783 105.274Z" fill="white" stroke="black"/>
<path id="souza" d="M99.5358 290.771L96.5575 287.125L94.0275 284.544L93.732 284.249L93.9052 282.551L90.5262 279.16L89.5142 277.73L88.0675 276.444L87.6498 275.999L85.782 274.121L84.8379 272.855L84.8787 272.414L84.3149 271.076L83.235 269.575L82.3317 268.516L83.2418 267.66L83.4082 267.654L83.4489 267.616L84.1485 266.91L84.3761 266.676L84.4983 266.554L84.1044 266.085L82.7765 265.263L81.408 264.941L81.0684 264.89L81.9819 263.871L82.8139 263.257L84.6206 262.452L85.0519 262.344L85.3745 262.255L93.4569 262.109L102.83 262.031L103.781 262.181L104.406 262.408L104.416 262.412L104.521 262.466L104.837 262.625L105.126 262.795L105.207 262.853L106.195 263.607L108.148 265.134L108.637 265.454L108.79 265.494L110.213 265.966L111.14 266.027L112.159 266.024L112.661 265.909L113.089 265.807L116.305 265.016L117.355 264.764L120.958 263.763L122.615 263.345L123.963 263.06L125.131 264.486L126.269 265.8L127.05 266.706L128.425 268.407L129.22 269.365L129.76 270.349L130.028 270.611L130.256 270.73L130.983 269.772L132.029 268.37L132.256 268.414L138.539 273.565L139.911 274.658L139.574 275.116L139.113 275.164L138.613 275.089L138.118 274.963L137.873 274.848L136.671 276.522L134.837 278.796L133.577 280.148L132.806 280.647L132.389 281.115L131.438 282.056L130.429 283.19L129.957 283.75L128.47 285.594L126.741 287.882L125.284 289.817L122.612 293.355L122.455 293.976L122.357 294.353L122.54 295.029L120.214 295.602L119.915 295.66L118.951 295.891L116.149 296.584L116.071 296.604L114.515 297.015L113.762 297.212L113.68 297.235L112.79 297.483L112.349 297.558L112.216 297.381L111.765 297.996L111.031 299.089L110.457 299.935L109.248 301.717L109.082 301.493L108.8 301.486L108.45 301.187L105.122 297.463L102.721 294.669L99.5358 290.771Z" fill="white" stroke="black"/>
<path id="pedreira" d="M94.0272 284.544L96.5573 287.124L96.4282 287.579L93.365 291.782L93.2699 291.718L92.4243 293.008L91.6127 294.118L89.969 296.637L88.9808 298.291L88.3458 299.204L87.5273 300.338L86.6342 301.771L84.8717 304.008L84.2332 304.976L83.2348 306.46L82.6201 307.183L82.3281 307.359L81.2821 308.694L82.2771 309.4L81.4791 310.5L81.4689 310.51L81.2108 310.815L80.4195 311.746L79.3566 313.049L78.9558 313.508L78.5313 314.004L76.6364 316.285L75.8689 317.222L74.8263 318.492L74.7822 318.546L72.8464 320.831L72.2623 321.551L71.7495 322.162L70.9685 323.106L70.7817 322.977L69.8444 322.362L68.6218 321.544L67.9358 321.086L66.9748 320.444L66.4382 321.245L65.4058 322.695L65.27 322.885L65.219 322.848L64.9338 322.661L64.8319 322.593L63.3818 321.765L63.066 321.517L62.8181 321.232L62.3223 320.756L60.1692 319.307L60.0945 319.256L60.0028 319.191L59.8466 319.079L59.704 318.981L58.0569 317.83L56.7359 316.964L56.1993 316.244L55.751 315.26L54.9496 313.369L54.3926 312.065L54.3553 311.973L54.3247 311.882L53.8561 310.462L52.6641 307.315L53.0512 307.577L53.4859 307.122L53.8832 306.517L54.7254 305.417L55.5269 304.083L55.7646 303.733L56.3283 302.813L57.2249 301.469L57.9992 300.399L58.7599 299.224L59.653 297.924L59.7345 297.799L60.4613 296.709L60.553 296.563L60.6345 296.437L61.3137 295.374L62.037 294.237L62.8758 292.998L63.9591 291.422L64.4583 290.563L65.2598 289.263L65.3005 289.205L66.119 288L66.2107 287.871L66.4314 287.555L66.5197 287.406L67.131 286.635L67.2057 286.537L67.8849 285.647L69.2908 283.447L69.3486 283.328L69.4199 283.172L70.9243 280.49L71.7461 279.197L72.1163 278.922L72.4593 278.66L72.9178 278.331L72.3506 277.886L71.6341 277.384L70.0855 276.358L71.5118 275.941L72.371 275.734L74.3746 275.275L75.1829 275.061L78.0491 274.314L78.511 274.131L79.2954 273.819L81.35 273.272L82.1617 273.099L83.2586 272.837L84.8784 272.413L84.8377 272.854L85.7818 274.121L87.6496 275.998L88.0673 276.443L89.514 277.73L90.526 279.159L93.905 282.551L93.7318 284.249L94.0272 284.544Z" fill="white" stroke="black"/>
<path id="universitario" d="M121.23 340.449L121.474 340.704L122.001 342.751L130.168 348.265L138.791 354.006L140.312 351.263L141.467 348.991L141.728 347.589L142.183 347.148L143.019 346.968L146.917 344.924L149.692 343.624L149.94 343.895L149.991 344.214L149.783 344.703L149.61 345.236L149.553 345.786L149.603 346.398L149.902 346.788L150.188 347.216L150.497 347.246H150.748L150.914 347.406L150.955 347.79L151.172 348.227L151.543 348.506L151.92 348.435L152.606 348.438L152.833 348.608L153.013 348.961L153.193 349.48L153.363 349.779L153.899 350.441L154.202 350.787L154.13 350.845L154.059 350.906L153.461 351.582L152.585 352.543L152.466 353.069L152.521 353.5L152.646 354.726L152.656 355.656L152.813 356.321L153.02 356.919L153.373 357.649L153.719 358.61L153.944 359.204L154.636 360.487L155.044 361.031L155.346 361.76L155.733 362.395L155.934 362.864L156.389 363.631L156.62 364.236L157.404 365.162L157.696 365.505L157.995 366.215L158.063 366.945L158.189 367.692L158.335 368.14L158.311 369.145L158.745 370.225L152.178 373.124L112.866 396.73L99.8284 402.733L96.5547 397.379L96.66 394.724L97.1082 391.492L97.4852 387.869L98.4632 388.334L103.54 389.736L103.673 389.77L104.362 389.937L105.639 390.314L105.69 390.249L107.109 388.344L109.072 386.27L109.127 386.168L109.313 385.818L109.405 385.404L109.371 384.25L109.351 383.965L109.29 383.696L109.195 383.303L109.028 382.804L109.008 382.749L108.546 381.632L107.846 379.945L107.086 377.585L106.807 376.899L106.179 375.114L106.603 375.09L107.052 375.565L108.101 375.752L108.926 375.942L109.813 376.105L110.298 376.098L110.577 376.013L111.144 375.806L111.728 375.823L112.499 376.01L113.874 376.438L114.061 375.796L115.413 376.305L116.571 376.604L117.589 376.896L118.163 377.059L119.447 377.558L119.855 376.764L120.136 376.108L120.554 375.399L120.941 374.737L122.048 372.523L122.171 372.302L125.692 365.994L126.008 364.918L126.073 363.682L125.859 362.161L123.784 358.735L123.661 358.382L123.594 358.182L123.05 357.275L122.962 356.963L122.51 355.367L122.239 353.245L121.943 349.626L121.784 348.024L121.722 347.226L121.627 346.058L121.641 345.803L121.604 345.386L121.539 344.656L121.298 341.461L121.23 340.449Z" fill="white" stroke="black"/>
<path id="marambaia" d="M94.5428 236.81L95.5582 236.742L96.6348 236.715L97.752 236.746L98.7335 236.742L99.4229 236.817H99.6945L100.883 236.749L102.768 236.583L104.021 236.474L107.529 236.229L109.838 236.263L109.879 236.267L110.966 236.352L112.379 236.43H112.406L118.053 236.617L118.495 236.61L119.5 236.64L121.252 236.705L123.365 236.827L126.822 236.881L127.107 236.902L128.428 236.939L129.314 236.97L130.965 237.031L132.466 237.044L133.61 237.116L134.789 237.272L137.319 237.503L137.309 237.418L139.818 237.486L142.148 237.526L145.075 237.554L145.085 237.703L145.306 239.496L145.469 241.499L145.544 242.473L145.741 244.887L145.958 247.284L145.951 247.444L145.948 247.467L145.754 248.859L145.428 250.425L145.415 250.489L145.364 250.812L145.18 251.531L144.902 252.662L144.715 253.31L144.352 254.974L143.988 256.295L143.931 256.614L143.741 256.899L143.469 257.313L143.384 257.412L143.068 257.721L142.742 258.111L142.318 258.457L141.751 258.641L140.817 258.912L140.015 259.106L139.716 259.225L138.83 259.483L137.658 259.751L136.707 259.951L135.937 260.128L135.359 260.27L134.524 260.505L133.794 260.678L132.958 260.892L132.51 260.994L132.187 261.106L131.447 261.289L131.328 261.333L127.678 262.189L126.316 262.532L123.962 263.061L122.614 263.346L120.957 263.764L117.354 264.766L116.304 265.017L113.088 265.808L112.66 265.91L112.158 266.025L111.139 266.029L110.212 265.968L108.789 265.496L108.636 265.455L108.147 265.136L106.194 263.608L105.206 262.854L105.125 262.796L104.836 262.627L104.52 262.467L104.415 262.413L104.405 262.409L103.78 262.182L102.829 262.033L93.4561 262.111L85.3736 262.257L85.051 262.345L82.0626 259.367L80.2831 257.758L78.3168 255.718L77.6817 255.083L77.1689 254.536L77.0331 254.397L76.2113 253.558L75.7969 253.134L75.3555 252.709L77.4033 250.363L78.276 249.515L79.1182 248.707L79.1318 248.693L86.4162 241.38L91.191 236.555L94.39 236.8L94.5428 236.81Z" fill="white" stroke="black"/>
<path id="aura" d="M247.014 264.477L248.706 263.404L255.555 259.052L259.362 256.628L262.361 254.719L265.064 253.117L265.312 252.957L266.137 252.435L266.12 253.694L266.042 259.242L265.55 264.121L265.312 265.241L265.251 265.533L264.935 266.993L264.765 270.456L266.423 277.202L270.831 280.764L271.5 283.728L271.435 286.063L270.725 287.618L270.552 289.35L271.214 292.025L271.058 293.149L269.852 294.439L269.679 296.062L269.18 297.098L267.968 297.261L266.698 296.144L265.543 296.266L264.725 297.254L263.733 297.865L263.02 298.303L264.049 299.182L263.943 300.109L262.948 300.483L262.521 301.382L261.845 301.868L260.975 302.027L260.524 301.029L259.58 300.999L258.316 301.834L257.335 301.807L256.285 302.469L256.561 305.358L256.384 306.38L254.071 307.032L251.65 309.714L250.944 312.08L250.115 316.732L246.858 323.593L246.474 328.808L245.595 333.809L244.882 334.522L243.174 335.174L241.625 335.371L239.699 336.41L239.665 336.457L240.076 334.169L239.306 330.594L238.378 328.975L237.064 327.98L235.257 327.311L232.469 326.326L230.048 324.748L228.245 324.731L228.493 302.907L217.228 308.61L211.363 303.012L213.054 302.187L213.15 302.136L217.361 299.878L218.023 299.654L220.206 299.736L220.152 299.658L218.077 296.643L216.233 296.225L216.131 296.228L215.917 295.522L215.802 294.707L215.812 294.195L215.486 293.061L214.759 290.093L215.513 284.593L215.534 284.424L215.564 284.213L215.968 281.667L216.124 281.008L216.668 278.329L217.092 275.511L217.524 273.508L218.257 273.562L218.675 273.593L218.478 275.769L218.087 277.905L218.811 278L219.008 278.037L219.313 278.109L219.337 278.21L219.609 278.251L219.599 278.669L219.585 279.124L219.51 279.667L219.453 279.762L219.313 279.765L219.184 279.796L219.249 280.139L218.875 282.434L220.628 287.696L222.305 287.992L225.993 288.64L230.846 289.492L231.933 289.683L231.909 290.019L231.906 290.104L232.035 290.997V291.047V291.088L232.038 292.545L232.262 292.84L232.789 293.244L233.23 293.322L234.025 293.142L234.565 292.918L235.448 293.091L235.407 292.226L235.794 292.046L238.643 292.63L239.115 292.059L239.852 291.662L240.681 291.845L242.82 292.562L244.094 291.923L244.817 291.356L245.269 290.8L245.612 290.066L245.493 289.217L245.123 287.781L245.15 285.7L245.14 283.001L245.096 272.235L246.658 270.364L246.78 269.417V267.394L247.205 266.344L247.014 264.477Z" fill="white" stroke="black"/>
<path id="sacramenta" d="M81.0646 264.89L81.4042 264.941L82.7727 265.263L84.1006 266.085L84.4945 266.553L84.3722 266.676L84.1447 266.91L83.4451 267.616L83.4044 267.653L83.238 267.66L82.3279 268.516L83.2312 269.575L84.3111 271.076L84.8749 272.413L83.255 272.838L82.1581 273.099L81.3464 273.272L79.2918 273.819L78.5074 274.131L78.0455 274.315L75.1793 275.062L74.3711 275.275L72.3674 275.734L71.5082 275.941L70.0819 276.359L71.6305 277.384L72.347 277.886L72.9142 278.331L72.4557 278.66L72.1127 278.922L71.7426 279.197L70.9207 280.49L69.4163 283.173L69.345 283.329L69.2873 283.448L67.8813 285.648L67.2021 286.537L67.1274 286.636L66.5161 287.406L66.4278 287.556L66.2071 287.871L66.1154 288L65.297 289.206L65.2562 289.263L64.4548 290.564L63.9555 291.423L62.8722 292.998L62.0334 294.237L61.3101 295.375L60.1181 294.563L59.4219 294.115L59.0042 293.823L58.0703 293.175L57.459 292.771L55.7237 291.63L54.8883 291.199L54.6845 291.076L54.0019 291.328L53.6623 291.256L52.5484 290.9L52.2665 290.683L51.9337 289.708L51.6824 288.958L51.3326 288.367L51.0304 287.909L50.5686 287.349L49.9946 286.856L49.4173 286.486L48.8977 286.225L47.9027 285.794L47.3322 285.627L46.0757 285.264L44.3165 284.741L41.4503 283.879L41.0156 283.767L43.9667 282.402L44.3844 282.171L45.0806 281.611L45.6953 280.996L46.439 280.226L46.8635 279.832L47.9299 278.796L48.8434 277.91L49.5226 277.279L50.3818 276.426L51.4821 275.333L54.2294 272.834L55.3365 271.762L56.4436 270.689L57.5303 269.677L58.5865 268.689L59.4117 267.874L61.0622 266.278L64.2612 263.168L69.4706 258.357L70.6015 257.274L71.5184 256.395L75.3525 252.708L75.794 253.132L76.2083 253.557L77.0301 254.395L77.166 254.535L77.6788 255.081L78.3138 255.716L80.2801 257.757L82.0596 259.366L85.0481 262.343L84.6168 262.452L82.8101 263.257L81.9781 263.871L81.0646 264.89Z" fill="white" stroke="black"/>
<path id="condor" d="M41.7148 402.221L42.0409 401.355L42.2446 399.729L42.3261 399.562L42.5774 398.815L43.9732 394.554L44.5675 393.55L44.7712 393.044L45.5489 390.684L46.3775 388.026L46.5134 387.533L46.6798 386.949L47.1111 385.792L47.5695 384.573L48.5815 381.021L49.5086 378.2L49.6003 377.959L50.592 378.696L51.1659 378.061L51.7568 377.749L51.7025 377.409L51.6923 377.29L52.5107 377.117L52.925 376.995L53.7027 376.55L54.4668 376.136L55.2445 376L56.1376 375.715L56.6402 376.995L56.7998 377.399L57.3126 378.743L57.6353 379.524L57.6726 379.629L58.1175 379.348L58.5012 378.665L58.7254 378.153L59.6627 378.265L60.8003 378.261L62.6647 378.214L65.4121 379.365L65.4053 380.543L65.4087 380.675L67.4463 380.567L68.1017 380.512L68.8115 380.38L69.7555 380.275L70.4144 380.247H70.7302L71.1954 380.23L71.1445 381.069L70.9136 381.918L70.5298 383.021L70.5196 384.6L70.9951 384.583H71.6777L71.6607 385.632L71.6505 386.311L71.6777 386.98L71.6709 387.146L71.6913 387.486V388.745L72.1192 388.929L72.9444 389.003L73.6066 389.041L72.9172 394.408L71.7422 394.619L72.7746 395.61L75.094 397.892L65.7415 398.9L62.5017 399.593L55.2513 401.267L46.2757 402.373L41.7148 402.221Z" fill="white" stroke="black"/>
<path id="terrafirme" d="M105.924 374.421L105.445 373.27L105.163 371.824L105 371.267L104.851 371.053L104.627 370.805L104.294 370.625L103.805 370.476L103.201 370.282L102.898 370.004L102.44 369.237L102.161 368.344L102.08 367.308L102.437 366.408L102.637 365.984L102.912 365.448L103.425 364.402L103.727 364.127L104.039 363.618L104.576 363.057L105.242 362.433L105.554 362.175L106.118 361.564L106.4 360.983L106.644 360.419L106.668 360.202L106.532 359.598L106.213 358.803L106.179 358.579L106.175 358.471V358.403L106.101 358.382L104.294 357.683L104.039 357.578L103.357 357.33L103.296 355.595L103.292 355.527L103.241 354.104L103.187 352.808L103.167 352.431L103.16 352.346L103.235 351.799L103.279 351.674L103.452 351.416L102.657 350.57L102.202 349.983L101.734 349.402L101.52 348.876L101.543 348.55L101.424 347.837L101.112 346.537L101 345.888L102.504 345.671L102.644 342.843L102.022 342.826L101.937 340.68L102.504 339.869L102.715 340.062L103.496 340.561L104.185 340.745H105.045L105.53 340.711L105.962 340.694L106.692 340.677L108.583 340.711L108.746 339.757L108.794 339.533L108.882 339.02L108.899 338.945L108.926 338.847L109.018 338.371L109.137 338.042L109.266 337.754L109.775 336.847L110.254 335.845L110.865 335.068L111.755 334.474L112.781 334.246L112.954 334.202L113.711 333.999L113.996 333.822L114.295 333.401L117.912 333.065L118.123 333.044L120.782 332.977L120.788 333.078L120.867 334.172L120.87 334.868L121.091 338.3L121.23 340.449L121.298 341.461L121.539 344.656L121.603 345.386L121.641 345.803L121.627 346.058L121.722 347.226L121.783 348.024L121.943 349.626L122.239 353.246L122.51 355.367L122.962 356.963L123.05 357.276L123.594 358.182L123.661 358.382L123.784 358.735L125.859 362.161L126.073 363.682L126.008 364.918L125.692 365.994L122.171 372.302L122.048 372.523L120.941 374.737L120.554 375.399L120.136 376.108L119.855 376.764L119.447 377.558L118.163 377.059L117.589 376.896L116.571 376.604L115.413 376.305L114.061 375.796L113.874 376.438L112.499 376.01L111.728 375.823L111.144 375.806L110.577 376.013L110.298 376.098L109.813 376.105L108.926 375.942L108.101 375.752L107.052 375.565L106.603 375.09L106.179 375.114L106.131 375.022L105.924 374.421Z" fill="white" stroke="black"/>
<path id="cruzeiro" d="M43.4846 29.9838L47.2712 27.7803L51.3531 26.2254L54.885 25.8519L57.7953 25.5497L58.6002 25.4648L58.7768 29.3523L58.8787 30.5032L59.2013 33.6675L59.2115 33.7965L59.3099 35.0968L59.2828 35.6706L59.5409 40.0028L59.6054 40.6751L59.7344 42.6748L59.8058 43.7884L59.8533 44.6304L59.8635 44.8579L59.911 45.6659L60.0129 47.8829L60.1589 49.6144L60.3219 51.7092L60.3355 52.1981L58.6885 52.3272L56.7528 52.5173L52.8134 52.7108L52.7998 52.5343L51.6622 52.5716L51.3871 52.5852L50.5517 52.6293L50.4702 52.6327L48.9182 52.7006L49.0303 54.371L48.1677 54.4186L47.4579 54.4559L46.5818 54.4933L45.0298 54.5883L44.9551 52.7482L40.958 53.0571L38.6657 53.1861L37.0153 53.2846L36.927 53.2914L30.7021 53.4577L30.4508 49.8861L29.9244 42.1384L29.9108 41.9007L29.5848 37.1543L29.5645 36.8352L33.9385 33.6947L40.0003 32.0073L43.4846 29.9838Z" fill="white" stroke="black"/>
<path id="pontagrossa" d="M30.6992 53.4588L36.9241 53.2925L37.0124 53.2857L38.6628 53.1872L40.9551 53.0582L44.9522 52.7492L45.0269 54.5894L46.5789 54.4943L47.455 54.457L48.1648 54.4196L49.0274 54.3721L48.9153 52.7017L50.4673 52.6338L50.5488 52.6304L51.3842 52.5863L51.6593 52.5727L52.7969 52.5353L52.8105 52.7119L56.7499 52.5184L58.6856 52.3282L60.3326 52.1992L60.353 52.5998L60.4311 53.9375L60.4923 54.9085L60.5364 56.253L60.8285 60.4222L60.9405 60.6124L61.0832 61.9534L61.1171 62.989L61.1239 63.1689L61.1477 63.4643L61.2258 64.5168L61.2462 64.8291L61.0594 67.1242L61.0492 67.2634L61.039 67.5079L60.9983 68.411L60.8896 68.4178L59.5074 68.4959L59.1984 68.5129L58.1456 68.4246L57.6091 68.3872L55.8499 68.4585L53.904 68.4382L50.0394 68.7573L50.1515 70.4481L50.2907 72.5021L43.2474 72.6685L42.6837 70.9913L42.2252 69.4397L38.8428 69.7555L37.4029 69.932L32.8591 70.4311L31.3343 62.5374L31.0388 58.066L30.6992 53.4588Z" fill="white" stroke="black"/>
<path id="agulha" d="M61.0505 67.2639L61.0606 67.1248L61.2474 64.8296L61.227 64.5173L61.1489 63.4648L61.1252 63.1694L61.1184 62.9895L61.0844 61.954L60.9418 60.6129L60.8297 60.4227L60.5377 56.2535L60.4935 54.909L60.4324 53.938L60.3543 52.6004L60.3339 52.1997L60.3203 51.7108L60.7041 51.463L61.4274 50.8654L61.9334 50.4444L63.4786 49.1169L64.7759 48.387L65.8897 47.8879L67.1972 47.5314L67.7881 47.4397L69.7034 47.3379L70.4777 47.5076L71.1807 47.691L72.118 48.078L72.7395 48.3429L72.8583 48.3904L73.49 48.7537L74.339 49.246L75.4223 49.9114L76.1456 50.346L76.7094 50.6481L77.1339 50.879L77.7893 51.2423L79.1341 52.1081L81.3143 53.405L83.1651 54.5695L84.2383 55.1874L84.476 55.3233L85.128 55.7918L86.0008 56.3486L87.0841 57.014L87.4101 57.2279L87.9297 57.6014L88.2286 57.8391L88.6259 58.0835L89.6379 58.7116L90.728 59.3906L91.594 59.9237L91.8215 60.0663L92.4532 60.5008L92.9252 60.8234L92.3038 61.0271L92.0117 61.4107L91.4072 61.6314L90.3239 61.757L89.407 61.8589L87.9841 62.0219L87.1215 62.1373L86.2589 62.2392L85.3793 62.3274L84.8699 62.3919L84.3741 62.4564L84.4353 63.1558L77.4633 63.7771L77.6908 65.7361L77.7044 65.8652L77.7519 66.4966L75.4223 66.7275L75.1472 66.7547L73.4187 66.9278L70.0091 67.2843L66.8067 67.617L66.6912 67.6306L64.674 67.8479L63.5669 68.184L62.5039 68.2587L60.9995 68.4115L61.0403 67.5084L61.0505 67.2639Z" fill="white" stroke="black"/>
<path id="campinadeicoaraci" d="M60.3214 51.7087L60.1584 49.6139L60.0123 47.8824L59.9105 45.6654L59.8629 44.8574L59.8527 44.6299L59.8052 43.7879L59.7339 42.6743L59.6048 40.6745L59.5403 40.0023L59.2822 35.6701L59.3094 35.0963L59.2109 33.796L59.2007 33.667L58.8781 30.5027L58.7762 29.3518L58.5996 25.4643L62.8004 25.0264L72.9918 23.9705L73.9121 23.8516L75.8343 23.6683L76.4184 23.597L76.5474 23.5257L77.1315 23.2167L82.2255 20.4938L82.8504 18.7454L84.1205 15.1771L84.2326 14.8681L84.5518 13.9752L85.2955 11.8872L88.7934 8.54297L88.7153 20.5006L88.7085 21.3528L88.4436 22.1303L88.4504 22.8399L88.2194 23.3424L88.6236 24.1708L88.9054 26.9887L88.97 27.8647L89.0515 28.6897L89.0786 29.4842L89.3911 33.1475L89.4488 34.0914L89.5065 34.5463L89.7239 36.8177L89.7341 36.8856L89.751 37.0384L89.8495 38.281L89.9582 39.7884L89.9616 39.8156L90.1008 41.7135L90.1789 42.6879L90.2774 43.9678L90.3555 44.5348L90.4982 46.4836L90.7223 48.8365L90.7291 48.996L90.7834 50.1538L90.8445 50.147L90.8479 50.4152L90.9362 51.4303L90.4778 51.3081L89.588 51.3149L88.5828 51.3387L87.5844 51.4541L87.1056 51.4881L86.26 51.5458L84.7454 51.651L83.8726 51.7155L83.5703 51.7393L82.0353 51.8615L80.5683 51.9803L79.1352 52.106L77.7904 51.2402L77.1349 50.8769L76.7104 50.6461L76.1467 50.3439L75.4233 49.9093L74.34 49.2439L73.491 48.7516L72.8594 48.3883L72.7405 48.3408L72.1191 48.0759L71.1818 47.6889L70.4788 47.5056L69.7045 47.3358L67.7892 47.4377L67.1983 47.5293L65.8908 47.8858L64.7769 48.3849L63.4796 49.1149L61.9345 50.4424L61.4285 50.8633L60.7051 51.4609L60.3214 51.7087Z" fill="white" stroke="black"/>
<path id="maracacuera" d="M89.5039 34.5475L89.4462 34.0925L89.3884 33.1487L89.076 29.4853L89.0488 28.6908L88.9673 27.8658L88.9028 26.9899L88.6209 24.1719L88.2168 23.3435L88.4477 22.841L88.4409 22.1314L88.7058 21.354L88.7126 20.5018L88.7907 8.5441L91.7792 5.6854L92.7844 5.261L99.3624 2.49397L104.079 0.507812L113.531 1.23098L121.854 1.86926L127.325 3.2409L131.057 6.42554L139.299 12.8661L149.216 17.6736L154.836 17.531L158.028 17.4495L156.979 19.619L158.133 26.6164L159.794 30.1541L143.802 33.8209L143.49 34.2894L142.447 35.4098L139.642 37.7185L139.113 38.1531L137.143 39.6979L137 39.8133L136.847 39.9321L135.574 40.9269L135.357 41.0967L133.791 42.1627L131.937 43.4122L131.095 43.8264L127.963 44.7329L127.644 44.8245L127.576 44.8449L126.184 45.2489L123.603 46.3557L120.798 47.6459L120.064 47.9854L119.708 48.1484L119.64 48.1789L118.122 49.0141L116.617 49.8935L116.336 50.0564L115.133 50.5318L114.801 50.637L112.539 51.3432L112.036 51.4858L111.476 51.6488L110.365 51.8864L109.785 51.9611L109.218 51.9917L108.352 52.0358L107.856 52.0596L107.143 52.1037L105.112 52.209L102.015 52.3855L95.8272 52.7046L95.5386 52.6707L95.0665 52.6028L90.9336 51.4315L90.8453 50.4163L90.8419 50.1481L90.7808 50.1549L90.7264 48.9972L90.7197 48.8376L90.4955 46.4848L90.3529 44.5359L90.2748 43.969L90.1763 42.689L90.0982 41.7146L89.9589 39.8167L89.9556 39.7895L89.8469 38.2821L89.7484 37.0395L89.7314 36.8867L89.7212 36.8188L89.5039 34.5475Z" fill="white" stroke="black"/>
<path id="aguasnegras" d="M107.145 52.1039L107.858 52.0597L108.354 52.036L109.22 51.9918L109.787 51.9613L110.368 51.8866L111.478 51.6489L112.039 51.4859L112.541 51.3433L114.803 50.6372L115.136 50.5319L116.338 50.0566L116.62 49.8936L118.124 49.0143L119.642 48.1791L119.71 48.1485L120.067 47.9856L120.8 47.646L123.605 46.3559L126.186 45.2491L127.579 44.8451L127.647 44.8247L127.966 44.733L131.097 43.8265L131.939 43.4123L133.793 42.1629L135.359 41.0968L135.576 40.9271L136.85 39.9323L137.002 39.8135L137.145 39.698L139.115 38.1532L139.645 37.7187L142.45 35.41L143.492 34.2896L143.805 33.821L159.796 30.1543L160.788 32.3306L161.858 38.8662L162.768 46.1454L164.578 50.7254L161.572 53.9203L160.717 54.6434L159.284 55.1018L157.653 55.044L156.302 54.7623L154.91 54.2428L154.135 54.1613L153.3 54.3005L152.366 54.4805L149.7 54.0425L148.804 54.3005L148.009 55.0033L147.71 56.1237L147.809 58.8873L147.632 59.7259L147.095 60.629L145.523 62.0007L144.929 62.9208L144.63 63.5862L144.436 64.6387L144.287 65.2329L143.869 65.5452L143.533 65.7116L143.041 65.9968L142.854 66.2446L142.735 66.4381L142.616 66.6384L142.558 67.0696L142.562 67.5381L142.691 67.8369L142.365 67.9184L141.56 68.5227L140.544 68.7095H140.076L139.57 68.757L138.806 69.1576H138.796L137.977 69.3478L136.901 70.4274L135.872 71.1743L135.199 71.5105L135.192 71.5139L134.849 71.6123L134.866 71.7719L134.897 72.4917L134.578 72.9941L132.89 73.6358L125.052 69.3953L124.814 69.2833L123.782 68.791L123.558 68.6619L122.912 68.2817L122.879 68.2613L122.851 68.2443L122.485 68.0135L122.457 68.8758L122.437 69.565L120.495 69.5617L118.657 69.6975L116.623 69.8502L115.652 69.9215L114.749 69.9894L112.894 70.1252L111.108 70.2407L111.128 70.4953L109.933 70.7228L109.312 70.8145L108.289 70.9638L107.288 71.1132L106.326 71.2524L105.331 71.3984L104.336 71.5648L103.338 71.7379L100.944 72.1046L100.373 71.2388L100.326 71.1574L100.214 71.0521L99.6601 70.1931L97.935 67.623L96.709 65.9085L95.9789 64.9918L95.5985 64.3365L94.4473 62.6424L93.7511 61.6917L92.9259 60.8226L92.4538 60.5L91.8222 60.0655L91.5947 59.9229L90.7287 59.3898L89.6386 58.7108L88.6266 58.0827L88.2292 57.8382L87.9304 57.6006L87.4108 57.2271L87.0848 57.0132L86.0015 56.3478L85.1287 55.791L84.4767 55.3224L84.2389 55.1866L83.1658 54.5687L81.315 53.4042L79.1348 52.1073L80.5679 51.9816L82.0349 51.8628L83.5699 51.7406L83.8722 51.7168L84.7449 51.6523L86.2596 51.5471L87.1052 51.4893L87.584 51.4554L88.5824 51.34L89.5876 51.3162L90.4774 51.3094L90.9358 51.4316L95.0688 52.6029L95.5408 52.6708L95.8295 52.7048L102.017 52.3857L105.114 52.2091L107.145 52.1039Z" fill="white" stroke="black"/>
<path id="fatima" d="M77.1241 336.015L77.1683 338.973H75.8472H75.3039L74.5058 338.85L73.6331 338.562L71.7143 338.073L70.1658 337.71L67.9957 337.642L66.7935 337.689L64.7831 337.737L63.6488 337.72L63.5368 334.454L63.35 331.327L63.3432 331.218L63.2142 328.356L63.2209 328.078L63.1836 326.04L63.1904 325.497L63.8866 324.9L64.1209 324.608L64.3077 324.377L64.5012 324.204L65.1431 323.104L65.2687 322.886L65.4046 322.696L66.437 321.247L66.9735 320.445L67.9346 321.087L68.6206 321.545L69.8431 322.364L70.7804 322.978L70.9672 323.107L71.1812 323.256L71.5615 323.569L71.806 323.773L72.0064 323.912L72.3799 324.156L72.6958 324.401L73.4293 324.9L73.7995 325.12L74.1017 325.317L74.679 325.687L77.0698 327.141L77.5215 327.429L76.934 328.356L76.9611 330.668L77.0087 331.564L77.0596 334.158L77.1241 336.015Z" fill="white" stroke="black"/>
<path id="telegrafo" d="M55.527 304.084L54.7255 305.418L53.8833 306.518L53.486 307.122L53.0513 307.577L52.6642 307.316L53.8562 310.463L54.3248 311.882L54.3554 311.974L54.3927 312.066L54.9497 313.37L55.7511 315.261L55.4489 315.352L54.7833 315.407H54.4199L52.4638 314.935L51.282 314.527L50.8032 314.385L49.5942 314.052L46.9963 313.41L43.3354 312.49L41.1144 311.95L37.2056 310.847L34.9439 310.192L34.859 310.165L34.7401 310.12L34.6518 310.09L32.8995 309.458L29.1605 308.392L29.5612 304.142L29.6427 303.296L29.0315 300.903L27.7919 296.448L27.7138 291.454L27.707 290.724L27.8089 289.4L27.8972 288.3L28.2538 286.073L27.9346 284.687L28.0432 284.623L28.8209 283.822L29.7548 282.922L30.7566 282.467L32.6007 282.06L33.8708 282.26L35.0865 282.46L38.7644 283.547L41.0193 283.767L41.454 283.879L44.3202 284.742L46.0793 285.265L47.3359 285.628L47.9064 285.794L48.9014 286.225L49.421 286.487L49.9983 286.857L50.5722 287.349L51.0341 287.909L51.3363 288.368L51.6861 288.958L51.9374 289.709L52.2702 290.683L52.5521 290.901L53.666 291.257L54.0056 291.328L54.6882 291.077L54.8919 291.199L55.7274 291.63L57.4627 292.771L58.074 293.175L59.0079 293.824L59.4256 294.116L60.1218 294.564L61.3138 295.375L60.6346 296.438L60.5531 296.564L60.4614 296.71L59.7346 297.799L59.6531 297.925L58.76 299.225L57.9993 300.4L57.225 301.47L56.3285 302.814L55.7647 303.734L55.527 304.084Z" fill="white" stroke="black"/>
<path id="barreiro" d="M27.9323 284.687L27.8746 284.429L26.5196 281.407L26.2207 279.064L26.146 278.209L26 274.192L26.0441 273.591L29.3111 273.951L30.1567 274.25L30.4657 274.583L31.0295 275.163L31.1381 275.364L31.257 275.931L35.2982 276.022L35.9061 276.26L36.7042 276.579L37.2951 276.616L40.3005 276.854L41.3023 276.888L42.0427 273.904L43.1158 270.397L43.924 267.857L44.6847 265.188L44.9123 264.38L45.0108 264.384L46.4201 264.401L47.9924 264.363L48.0638 264.36L49.0316 264.228L49.4833 263.712L50.0946 263.644L50.3289 263.62L52.1186 263.637L52.6585 263.647L54.4652 263.681L56.5198 263.688L56.8526 263.691L57.4639 263.705L59.2943 263.773L59.3181 263.603L59.9022 263.606L59.8954 262.503L60.3063 262.462L61.5934 262.126L62.2013 261.963L62.4594 261.888L63.4748 261.549L63.9468 262.635L63.9944 262.71L64.2626 263.168L61.0636 266.278L59.4132 267.874L58.5879 268.689L57.5318 269.677L56.4451 270.689L55.338 271.761L54.2309 272.834L51.4835 275.333L50.3832 276.426L49.524 277.279L48.8448 277.91L47.9313 278.796L46.865 279.832L46.4405 280.225L45.6968 280.996L45.0821 281.611L44.3859 282.171L43.9682 282.402L41.0171 283.767L38.7621 283.546L35.0843 282.459L33.8685 282.259L32.5984 282.059L30.7544 282.466L29.7526 282.921L28.8187 283.821L28.041 284.622L27.9323 284.687Z" fill="white" stroke="black"/>
<path id="miramar" d="M45.0115 264.385L44.9131 264.381L44.6855 265.189L43.9248 267.858L43.1166 270.398L42.0434 273.905L41.3031 276.889L40.3013 276.855L37.2958 276.617L36.7049 276.58L35.9069 276.261L35.299 276.023L31.2578 275.932L31.1389 275.365L31.0302 275.164L30.4665 274.584L30.1575 274.251L29.3119 273.952L26.0449 273.592L26.3438 270.14L26.4015 259.143L27.1282 249.1L28.6429 248.38L33.6282 246.377L33.3429 246.852L32.3139 248.387L31.7706 249.164L35.4179 249.202L38.9395 249.188L43.9927 249.025L43.9995 249.161L44.1557 249.158L44.1625 251.388L44.278 254.712L47.6978 254.06L48.6588 253.897L49.5418 253.789L49.6029 254.865L49.6233 256.128L49.7014 257.825L49.7286 258.436L49.0562 258.369L49.1614 263.777L49.4841 263.713L49.0324 264.229L48.0645 264.361L47.9932 264.364L46.4209 264.402L45.0115 264.385Z" fill="white" stroke="black"/>
<path id="maracangalha" d="M44.1635 251.388L44.1567 249.158L44.0004 249.161L43.9937 249.025L38.9404 249.188L35.4188 249.202L31.7715 249.165L32.3148 248.387L33.3438 246.852L33.6291 246.377L38.2748 244.374L42.6624 242.463L44.9887 241.492L46.8429 240.395L49.4137 239.92L53.2953 239.071L54.7725 238.49L56.2124 237.356L58.464 235.441L60.2978 237.227L61.8871 238.775L62.366 239.23L62.3897 239.251L63.6361 240.425L70.1801 247.077L71.3552 248.39L71.9698 249.005L75.3556 252.709L71.5216 256.396L70.6046 257.276L69.4738 258.359L64.2643 263.17L63.9961 262.711L63.9485 262.636L63.4765 261.55L62.4611 261.89L62.203 261.964L61.5951 262.127L60.308 262.463L59.8971 262.504L59.9039 263.607L59.3198 263.604L59.296 263.774L57.4656 263.706L56.8543 263.692L56.5215 263.689L54.4669 263.682L52.6602 263.648L52.1203 263.638L50.3306 263.621L50.0963 263.645L49.485 263.713L49.1624 263.777L49.0571 258.369L49.7295 258.437L49.7023 257.826L49.6242 256.128L49.6038 254.865L49.5427 253.789L48.6598 253.897L47.6987 254.06L44.2789 254.712L44.1635 251.388Z" fill="white" stroke="black"/>
</g>
</svg>
